<?xml version="1.0" standalone="no"?>
<!DOCTYPE svg PUBLIC "-//W3C//DTD SVG 1.1//EN" "http://www.w3.org/Graphics/SVG/1.1/DTD/svg11.dtd" >
<!--
2013-9-30: Created.
-->
<svg>
<metadata>
Created by iconfont
</metadata>
<defs>

<font id="iconfont" horiz-adv-x="1024" >
  <font-face
    font-family="iconfont"
    font-weight="500"
    font-stretch="normal"
    units-per-em="1024"
    ascent="896"
    descent="-128"
  />
    <missing-glyph />
    
    <glyph glyph-name="iconfonticon02" unicode="&#58888;" d="M818.99186 445.398372 573.398372 445.398372 573.398372 690.99186 450.601628 690.99186 450.601628 445.398372 205.00814 445.398372 205.00814 322.601628 450.601628 322.601628 450.601628 77.00814 573.398372 77.00814 573.398372 322.601628 818.99186 322.601628Z"  horiz-adv-x="1024" />

    
    <glyph glyph-name="jianhao" unicode="&#59177;" d="M863.74455 351.99914 163.424056 351.99914c-17.664722 0-32.00086 14.336138-32.00086 32.00086s14.336138 32.00086 32.00086 32.00086l700.320495 0c17.695686 0 31.99914-14.336138 31.99914-32.00086S881.440237 351.99914 863.74455 351.99914z"  horiz-adv-x="1024" />

    
    <glyph glyph-name="jianhao1" unicode="&#58938;" d="M288.191617 428.761677l447.616766 0 0-89.523353-447.616766 0 0 89.523353Z"  horiz-adv-x="1024" />

    
    <glyph glyph-name="jiahao" unicode="&#59075;" d="M896 352H128c-17.6 0-32 14.4-32 32s14.4 32 32 32h768c17.6 0 32-14.4 32-32s-14.4-32-32-32zM512-32c-17.6 0-32 14.4-32 32V768c0 17.6 14.4 32 32 32s32-14.4 32-32v-768c0-17.6-14.4-32-32-32z"  horiz-adv-x="1024" />

    
    <glyph glyph-name="jianhao2" unicode="&#60149;" d="M170.666667 426.666667h682.666666v-85.333334H170.666667z"  horiz-adv-x="1024" />

    
    <glyph glyph-name="jianhao3" unicode="&#58939;" d="M877.4 367.79999999999995H148.7c-10.5 0-19.1 8.6-19.1 19.1s8.6 19.1 19.1 19.1h728.7c10.5 0 19.1-8.6 19.1-19.1s-8.5-19.1-19.1-19.1z"  horiz-adv-x="1024" />

    
    <glyph glyph-name="tianjia" unicode="&#58926;" d="M477.090909 418.909091V837.934545C477.090909 857.157818 492.590545 872.727273 512 872.727273c19.269818 0 34.909091-15.755636 34.909091-34.792728V418.909091h419.025454c19.223273 0 34.792727-15.499636 34.792728-34.909091 0-19.269818-15.755636-34.909091-34.792728-34.909091H546.909091v-419.025454c0-19.223273-15.499636-34.792727-34.909091-34.792728-19.269818 0-34.909091 15.755636-34.909091 34.792728V349.090909H58.065455A34.769455 34.769455 0 0 0 23.272727 384c0 19.269818 15.755636 34.909091 34.792728 34.909091H477.090909z"  horiz-adv-x="1024" />

    
    <glyph glyph-name="jiahao1" unicode="&#58890;" d="M832 426.666667H554.666667V704c0 25.6-17.066667 42.666667-42.666667 42.666667s-42.666667-17.066667-42.666667-42.666667V426.666667H192c-25.6 0-42.666667-17.066667-42.666667-42.666667s17.066667-42.666667 42.666667-42.666667H469.333333v-277.333333c0-25.6 17.066667-42.666667 42.666667-42.666667s42.666667 17.066667 42.666667 42.666667V341.333333h277.333333c25.6 0 42.666667 17.066667 42.666667 42.666667s-17.066667 42.666667-42.666667 42.666667z"  horiz-adv-x="1024" />

    
    <glyph glyph-name="jianhao4" unicode="&#58891;" d="M768 341.333333H256c-25.6 0-42.666667 17.066667-42.666667 42.666667s17.066667 42.666667 42.666667 42.666667h512c25.6 0 42.666667-17.066667 42.666667-42.666667s-17.066667-42.666667-42.666667-42.666667z"  horiz-adv-x="1024" />

    
    <glyph glyph-name="deng1" unicode="&#59269;" d="M511.978511 786.683487l-8.846465-0.112563c-154.252868-4.633521-279.303705-134.068194-278.768517-288.530839 0.279362-73.704505 28.480601-143.702602 79.404309-197.099637l14.439845-14.944333c37.384371-38.4527 49.971012-51.430243 49.971011-103.310741v-28.763033h287.643635V182.685374c0 49.352936 13.735812 63.930927 46.937938 99.210361 7.836463 8.370628 16.375936 17.443243 25.531439 27.835919 46.010825 52.415685 71.345789 119.631419 71.345789 189.320479 0 158.645913-129.039677 287.631355-287.658984 287.631354zM685.091898 347.708518c-8.707295-9.859536-16.795491-18.48292-24.211377-26.374641-29.913227-31.79713-54.438758-57.862733-60.925482-109.884447H424.213807c-6.092753 54.296518-30.419763 79.322445-64.772083 114.631555l-14.04485 14.577991c-40.728529 42.695319-63.284199 98.676196-63.510349 157.57963-0.419555 123.562953 99.605356 227.127473 222.984115 230.833881l7.106847 0.112563c126.907111 0 230.137011-103.22683 230.137011-230.132917a229.222177 229.222177 0 0 0-57.0226-151.343615zM368.178694 125.131678h287.643635v-57.498437H368.178694zM425.704761 38.869185h172.591502v-57.552672H425.704761zM339.413615 499.052133h57.527089c0 63.480673 51.599089 115.052133 115.066459 115.052132v57.554719c-95.179566 0-172.593548-77.441612-172.593548-172.606851z"  horiz-adv-x="1024" />

    
    <glyph glyph-name="huiyuan-" unicode="&#58884;" d="M1018.61333 498.9L788.31333 811.2c-5.2 7.1-13.5 11.2-22.3 11.2l-513-3.7c-8.8-0.1-17-4.3-22.1-11.5L5.11333 491.6c-7.7-10.8-6.6-25.6 2.6-35.1L496.01333-46.10000000000002c5.2-5.3 12.3-8.3 19.7-8.3h0.2c7.5 0.1 14.6 3.2 19.8 8.6l480.8 509.5c9.1 9.7 10 24.5 2.1 35.2z m-715.3-46.5l139.4-364.8-353 363.3 213.6 1.5z m292.8 313.8L667.31333 510l-310.9-2.3 68 257.3 171.7 1.2zM662.21333 455L514.71333 53.200000000000045 362.01333 452.8l300.2 2.2z m58.6 0.4l213.8 1.5-348.9-369.6 135.1 368.1zM940.71333 512l-216.5-1.6L653.01333 766.7l99.4 0.7L940.71333 512zM267.41333 763.9l100 0.7-68-257.3-216.6-1.6 184.6 258.2z"  horiz-adv-x="1024" />

    
    <glyph glyph-name="fangdajing1" unicode="&#58935;" d="M921.3 22L738.1 205.2c51.3 62.6 82.1 142.5 82.1 229.6 0 200.1-162.8 363-363 363-200.1 0-363-162.8-363-363s162.8-363 363-363c87 0 167 30.8 229.6 82.1L870-29.3c7.1-7.1 16.4-10.6 25.7-10.6s18.6 3.5 25.7 10.6c14.1 14.2 14.1 37.2-0.1 51.3zM166.8 434.8c0 160.1 130.3 290.4 290.4 290.4s290.4-130.3 290.4-290.4-130.3-290.4-290.4-290.4-290.4 130.3-290.4 290.4z"  horiz-adv-x="1024" />

    
    <glyph glyph-name="fangdajing2" unicode="&#58896;" d="M969.975-9.855L842.142 99.468a39.382 39.382 0 1 1-55.686-55.686L914.29-65.54a39.382 39.382 0 1 1 55.686 55.686zM468.41 54.888a381.135 381.135 0 1 1 0 762.27 381.135 381.135 0 0 1 0-762.27z m0-78.763a459.898 459.898 0 1 0 0 919.796 459.898 459.898 0 0 0 0-919.796z"  horiz-adv-x="1032" />

    
    <glyph glyph-name="icon-test" unicode="&#58923;" d="M515.175194 503.863566h-9.525582c-12.700775 0-23.813953 11.113178-23.813953 23.813953v115.894574c0 12.700775 11.113178 23.813953 23.813953 23.813954h9.525582c12.700775 0 23.813953-11.113178 23.813953-23.813954v-115.894574c0-12.700775-11.113178-23.813953-23.813953-23.813953zM553.277519-89.897674h-130.182945C270.685271-89.897674 146.852713 33.934884 146.852713 186.344186V619.75814C146.852713 772.167442 270.685271 896 423.094574 896h130.182945C705.686822 896 829.51938 772.167442 829.51938 619.75814v-433.413954c0-152.409302-123.832558-276.24186-276.241861-276.24186zM423.094574 864.248062C288.148837 864.248062 178.604651 754.703876 178.604651 619.75814v-433.413954c0-134.945736 109.544186-244.489922 244.489923-244.489922h130.182945c134.945736 0 244.489922 109.544186 244.489923 244.489922V619.75814c0 134.945736-109.544186 244.489922-244.489923 244.489922h-130.182945zM488.186047 495.925581c-31.751938 0-58.741085 26.989147-58.741086 58.741086v107.956589c0 31.751938 26.989147 58.741085 58.741086 58.741085s58.741085-26.989147 58.741085-58.741085V554.666667c1.587597-14.288372-4.762791-28.576744-14.288372-39.689923-11.113178-12.700775-26.989147-19.051163-44.452713-19.051163z m0 193.686822c-15.875969 0-26.989147-11.113178-26.989148-26.989147V554.666667c0-15.875969 11.113178-26.989147 26.989148-26.989148 7.937984 0 15.875969 3.175194 20.638759 7.937985 3.175194 3.175194 6.350388 9.525581 6.350388 17.463566v109.544186c0 15.875969-11.113178 26.989147-26.989147 26.989147z"  horiz-adv-x="1024" />

    
    <glyph glyph-name="shubiao1" unicode="&#58886;" d="M726.9 737.9C677.8 787 612.5 814 543.1 814h-29.6c-0.5 0-1 0.1-1.5 0.1s-1 0-1.5-0.1h-29.6c-69.4 0-134.7-27-183.8-76.2S220.9 623.5 220.9 554v-340.1c0-69.4 27-134.7 76.2-183.8s114.4-76.2 183.8-76.2h62.2c69.4 0 134.7 27 183.8 76.2s76.2 114.4 76.2 183.8V554c0 69.5-27.1 134.8-76.2 183.9z m-28.2-28.3c41.6-41.6 64.4-96.8 64.4-155.6v-94.7c-31.5-20-67.8-35.8-108.2-47.2-39.1-11.1-80.4-17.4-122.9-19V774h11.1c58.8 0 114-22.9 155.6-64.4z m-373.4 0c41.6 41.6 96.8 64.4 155.6 64.4H492v-381c-86.9 2.9-168 25.6-231.1 64.9V554c0 58.8 22.9 114 64.4 155.6z m373.4-651.3c-41.6-41.6-96.8-64.4-155.6-64.4h-62.2c-58.8 0-114 22.9-155.6 64.4-41.6 41.6-64.4 96.8-64.4 155.6V411.7c70.6-38.2 158-59 250-59h1.4c92.6 0.2 180.2 21.4 250.9 60.2v-199c-0.1-58.8-23-114-64.5-155.6z"  horiz-adv-x="1024" />

    
    <glyph glyph-name="jiajiabaojie-tubiao-" unicode="&#58937;" d="M534.4-49.7c-54.6 0-107.5 10.7-157.4 31.8-48.1 20.4-91.4 49.5-128.5 86.6s-66.3 80.4-86.6 128.5c-21.1 49.9-31.8 102.8-31.8 157.4 0 76.9 21.7 151.7 62.7 216.3 9.5 14.9 29.2 19.3 44.2 9.9 14.9-9.5 19.3-29.2 9.9-44.2-34.5-54.4-52.7-117.3-52.7-182 0-90.9 35.4-176.4 99.7-240.6 64.3-64.3 149.7-99.7 240.6-99.7S710.7 49.7 775 114c64.3 64.3 99.7 149.7 99.7 240.6S839.3 531 775 595.2c-64.3 64.3-149.7 99.7-240.6 99.7-40.7 0-80.5-7.1-118.3-21.1-36.5-13.5-70.2-33.1-100.2-58.3-13.5-11.4-33.7-9.6-45.1 4-11.4 13.5-9.6 33.7 4 45.1 35.6 29.9 75.7 53.1 119.1 69.2 44.9 16.6 92.2 25.1 140.5 25.1 54.6 0 107.5-10.7 157.4-31.8 48.1-20.4 91.4-49.5 128.5-86.6s66.3-80.4 86.6-128.5c21.1-49.9 31.8-102.8 31.8-157.4S928 247.1 906.9 197.2c-20.4-48.1-49.5-91.4-86.6-128.5s-80.4-66.3-128.5-86.6c-49.9-21.1-102.9-31.8-157.4-31.8zM380.7 236.2v162h-16.2c-16.8 0-33.6-0.6-50.4-1.8v34.2c15.6-1.2 32.4-1.8 50.4-1.8h52.2c-1.2-22.8-1.8-46.8-1.8-72v-99c10.8 13.2 20.4 25.8 28.8 37.8 6-13.2 13.2-25.2 21.6-36-13.2-15.6-25.5-30.3-36.9-44.1-11.4-13.8-25.5-31.5-42.3-53.1-8.4 10.8-17.4 20.4-27 28.8 14.4 14.3 21.6 29.3 21.6 45z m-25.2 311.5c9.6 7.2 18.6 15.6 27 25.2l54-64.8c-12-8.4-21.6-17.4-28.8-27-20.4 28.7-37.8 50.9-52.2 66.6zM667 536.9c24 0 46.2 0.6 66.6 1.8v-34.2c-20.4 1.2-42.6 1.8-66.6 1.8h-45v-117h41.4c20.4 0 40.2 0.6 59.4 1.8v-34.2c-18 1.2-37.8 1.8-59.4 1.8H622v-149.5h50.4c20.4 0 43.8 0.6 70.2 1.8v-34.2c-26.4 1.2-49.8 1.8-70.2 1.8H514c-28.8 0-52.8-0.6-72-1.8V211c19.2-1.2 37.8-1.8 55.8-1.8V349.6c0 25.2-0.6 46.2-1.8 63h37.8c-1.2-15.6-1.8-36.6-1.8-63v-140.4h54v297h-32.4c-27.6 0-54-0.6-79.2-1.8v34.2c25.2-1.2 51.6-1.8 79.2-1.8H667z"  horiz-adv-x="1024" />

    
    <glyph glyph-name="jiantou" unicode="&#58904;" d="M321.499429-94.025143L225.828571-9.398857l393.325715 392.192L230.948571 772.132571 319.780571 861.330286 798.464 382.902857 321.499429-94.025143z"  horiz-adv-x="1024" />

    
    <glyph glyph-name="deng2" unicode="&#58889;" d="M517.080485-74.560823h-26.343256V396.60713h26.343256v-471.167953z m-22.203602 3.763322h18.816612V392.843807h-18.816612v-463.641308zM754.169791 411.284087h-500.521867V812.454245h500.521867v-401.170158z m-485.092246 15.053289h470.415289V797.400956h-470.415289v-371.06358zM523.101801-86.603455c-4.515987 0-8.655641 0-12.418964 0.376333-150.909225 7.526645-163.328188 20.698273-163.328188 34.246233 0 8.279309 6.021316 18.440279 51.933848 26.343256 29.730246 5.268651 69.621463 7.902977 111.770672 7.902977 56.073502 0 149.780228-7.150312 162.199192-26.343257 2.257993-3.38699 2.634326-7.526645 1.128997-10.913634-9.031974-20.698273-101.986035-31.611907-151.285557-31.611908zM363.536935-52.357222c5.644983-4.139655 31.98824-13.54796 148.274899-19.192943 53.815509-2.634326 131.339949 10.913635 146.76957 20.698272-12.795296 7.150312-66.610805 17.687615-147.145902 17.687615-89.567071 0-138.866593-12.042631-147.898567-19.192944z"  horiz-adv-x="1024" />

    
    <glyph glyph-name="shubiao2" unicode="&#58894;" d="M564.193298 51.15485c-100.413404 0-181.683245 81.631041-181.683245 181.683245v173.375662c0 100.413404 81.631041 181.683245 181.683245 181.683245 100.413404 0 181.683245-81.631041 181.683245-181.683245v-173.375662c0.361199-100.413404-81.269841-181.683245-181.683245-181.683245z m0 526.267372c-94.273016 0-170.847266-76.57425-170.847266-170.847266v-173.375661c0-94.273016 76.57425-170.847266 170.847266-170.847267 94.273016 0 170.847266 76.57425 170.847266 170.847267v173.375661c0.361199 93.911817-76.57425 170.847266-170.847266 170.847266zM564.193298 369.732628c-2.889594 0-5.417989 2.528395-5.417989 5.417989v98.607408c0 2.889594 2.528395 5.417989 5.417989 5.417989s5.417989-2.528395 5.417989-5.417989v-98.607408c0-2.889594-2.167196-5.417989-5.417989-5.417989zM149.536508 237.172487c-2.889594 0-5.417989 2.528395-5.417989 5.417989s2.528395 5.417989 5.417989 5.41799c74.768254 0 135.449735 50.929101 135.449735 113.777777V592.592593c0 68.627866 65.738272 124.613757 146.285715 124.613756S577.557672 661.220459 577.557672 592.592593c0-2.889594-2.528395-5.417989-5.417989-5.41799s-5.417989 2.528395-5.41799 5.41799c0 62.848677-60.681481 113.777778-135.449735 113.777777S295.822222 655.44127 295.822222 592.592593v-230.80635c0-68.627866-65.738272-124.613757-146.285714-124.613756z"  horiz-adv-x="1024" />

    
    <glyph glyph-name="jiantou-you-cuxiantiao" unicode="&#59052;" d="M0 384C0 665.6 230.4 896 512 896s512-230.4 512-512-230.4-512-512-512S0 102.4 0 384z m85.333333 0c0-234.666667 192-426.666667 426.666667-426.666667s426.666667 192 426.666667 426.666667S746.666667 810.666667 512 810.666667 85.333333 618.666667 85.333333 384zM343.466667 629.333333l275.2-277.333333c14.933333-14.933333 40.533333-14.933333 55.466666 0l4.266667 4.266667c14.933333 14.933333 14.933333 40.533333 0 55.466666L405.333333 689.066667c-17.066667 14.933333-42.666667 14.933333-57.6 0l-4.266666-4.266667c-14.933333-14.933333-14.933333-40.533333 0-55.466667zM405.333333 78.933333l275.2 275.2c14.933333 14.933333 14.933333 40.533333 0 55.466667l-4.266666 4.266667c-14.933333 14.933333-40.533333 14.933333-55.466667 0l-277.333333-275.2c-14.933333-14.933333-14.933333-40.533333 0-55.466667l4.266666-4.266667c14.933333-14.933333 40.533333-14.933333 57.6 0z"  horiz-adv-x="1024" />

    
    <glyph glyph-name="jiantou-you-cuxiantiao-fill" unicode="&#59054;" d="M0 384c0-283.733333 228.266667-512 512-512s512 228.266667 512 512S795.733333 896 512 896 0 667.733333 0 384zM405.333333 689.066667l275.2-275.2c8.533333-8.533333 12.8-19.2 10.666667-29.866667 0-10.666667-4.266667-21.333333-10.666667-29.866667L405.333333 78.933333c-14.933333-14.933333-40.533333-14.933333-55.466666 0l-4.266667 4.266667c-14.933333 14.933333-14.933333 40.533333 0 55.466667L588.8 384 343.466667 629.333333c-14.933333 14.933333-14.933333 40.533333 0 55.466667l4.266666 4.266667c14.933333 14.933333 40.533333 14.933333 57.6 0z"  horiz-adv-x="1024" />

    
    <glyph glyph-name="Turn" unicode="&#59607;" d="M867.972134 364.598207L458.648006 773.922335a89.466254 89.466254 0 0 1-126.405782 0l-209.679861-209.679861a89.466254 89.466254 0 0 1 0-126.405782l409.324128-409.110604 34.377248-34.590772a89.679778 89.679778 0 0 1 126.405782 0l209.679861 209.679861a89.252731 89.252731 0 0 1 0 126.405782zM182.989451 498.26378a4.483989 4.483989 0 0 0 0 5.551606l209.679861 209.679861a4.056942 4.056942 0 0 0 5.551605 0L807.545045 304.384642a4.270466 4.270466 0 0 0 0-5.765128L597.865184 88.939653a4.056942 4.056942 0 0 0-5.551605 0zM779.573496 807.44549l42.704656 30.320306A32.028492 32.028492 0 0 1 784.484531 889.865476l-106.76164-77.081904A32.028492 32.028492 0 0 1 669.82253 767.73016L747.33148 660.96852a31.601445 31.601445 0 0 1 26.04984-13.238443 31.814969 31.814969 0 0 1 25.836317 50.605017l-33.523155 46.975122A260.284878 260.284878 0 0 0 960.85476 493.566268a32.028492 32.028492 0 0 1 64.056984 0 324.555386 324.555386 0 0 1-245.338248 313.879222zM277.580264 107.089131a32.028492 32.028492 0 0 1-52.09968-37.366574l33.736678-46.975121A260.284878 260.284878 0 0 0 64.056984 274.27786a32.028492 32.028492 0 0 1-64.056984 0 324.128339 324.128339 0 0 1 245.124726-313.879222l-42.704656-30.320306a31.814969 31.814969 0 0 1-7.473315-44.626365 32.242015 32.242015 0 0 1 44.839889-7.473315l106.76164 77.081904a31.814969 31.814969 0 0 1 13.02492 21.352328 32.669062 32.669062 0 0 1-4.697512 22.633468z"  horiz-adv-x="1025" />

    
    <glyph glyph-name="like-line" unicode="&#58932;" d="M512 34.50879999999995c-5.632 0-11.0592 2.3552-14.9504 6.4512L191.488 367.20640000000003l-0.6144 0.6144C153.7024 408.2688 133.12 461.6192 133.12 518.144c0 57.2416 20.992 111.104 58.9824 151.7568 38.4 40.96 89.4976 63.488 143.9744 63.488 45.4656 0 88.3712-15.5648 124.2112-44.9536 20.8896-17.1008 38.4-38.6048 51.5072-62.6688 13.1072 24.064 30.72 45.568 51.5072 62.6688 35.84 29.4912 78.7456 44.9536 124.2112 44.9536 54.4768 0 105.5744-22.528 143.9744-63.488 38.0928-40.6528 58.9824-94.5152 58.9824-151.7568 0-56.5248-20.48-109.8752-57.6512-150.3232l-0.6144-0.6144-305.2544-326.144c-3.8912-4.1984-9.3184-6.5536-14.9504-6.5536zM221.9008 394.6496L512 84.99199999999996l290.0992 309.6576c0.1024 0.2048 0.3072 0.3072 0.4096 0.4096 30.5152 32.8704 47.3088 76.5952 47.3088 123.0848 0 96.1536-72.704 174.2848-161.9968 174.2848-72.2944 0-136.3968-52.224-155.9552-126.976-2.3552-9.0112-10.5472-15.2576-19.7632-15.2576-9.3184 0-17.408 6.2464-19.7632 15.2576-19.5584 74.752-83.7632 126.976-155.9552 126.976-89.3952 0-161.9968-78.2336-161.9968-174.2848 0-46.4896 16.7936-90.112 47.3088-123.0848-0.1024-0.1024 0.1024-0.3072 0.2048-0.4096z"  horiz-adv-x="1024" />

    
    <glyph glyph-name="icon-test1" unicode="&#59266;" d="M750.933333 896H273.066667a136.533333 136.533333 0 0 1-136.533334-136.533333v-750.933334a136.533333 136.533333 0 0 1 136.533334-136.533333l238.933333 238.933333 238.933333-238.933333a136.533333 136.533333 0 0 1 136.533334 136.533333V759.466667a136.533333 136.533333 0 0 1-136.533334 136.533333z m68.266667-887.466667a68.266667 68.266667 0 0 0-68.266667-68.266666l-238.933333 238.933333-238.933333-238.933333a68.266667 68.266667 0 0 0-68.266667 68.266666V759.466667a68.266667 68.266667 0 0 0 68.266667 68.266666h477.866666a68.266667 68.266667 0 0 0 68.266667-68.266666z"  horiz-adv-x="1024" />

    
    <glyph glyph-name="icon-test2" unicode="&#59267;" d="M1194.666667 896H170.666667a170.666667 170.666667 0 0 1-170.666667-170.666667v-682.666666a170.666667 170.666667 0 0 1 170.666667-170.666667h1024a170.666667 170.666667 0 0 1 170.666666 170.666667V725.333333a170.666667 170.666667 0 0 1-170.666666 170.666667z m42.666666-85.333333L682.666667 384 128 810.666667zM85.333333 42.666667V725.333333l384-298.666666-380.16-408.746667A96.426667 96.426667 0 0 0 85.333333 42.666667z m66.56-85.333334l384 410.453334L682.666667 259.84l139.52 110.933333L1213.44-42.666667H151.893333zM1280 42.666667a96.426667 96.426667 0 0 0-3.84-24.746667L896 426.666667l384 298.666666z"  horiz-adv-x="1365" />

    
    <glyph glyph-name="icon-test3" unicode="&#59270;" d="M630.058368-49.242704a433.165128 433.165128 0 0 0-416.626096 315.029184h127.980606c12.207381 11.813594 18.507965 27.95884 6.300584 39.378648l-148.063717 149.638862a31.502918 31.502918 0 0 1-42.135153 0L9.057089 305.165128c-17.720392-20.476897-5.906797-27.95884 6.300584-39.378648h118.135944a511.922424 511.922424 0 0 1 933.273957-150.426435l-74.031858 29.533986A433.165128 433.165128 0 0 0 630.058368-49.242704z m617.850987 511.922424h-111.83536A511.922424 511.922424 0 0 1 176.022557 620.194312l73.638071-29.533986A433.165128 433.165128 0 0 0 1056.529126 462.67972h-134.674976c-12.207381-11.813594-24.020975-19.295538-6.300584-39.378648L1063.223496 273.66221a31.896705 31.896705 0 0 1 44.104086 0l146.882357 149.638862c12.207381 11.419808 5.906797 27.565054-6.300584 39.378648z"  horiz-adv-x="1260" />

    
    <glyph glyph-name="icon-test4" unicode="&#59272;" d="M675.84 401.28L544 269.12V608a32 32 0 0 1-64 0v-338.88l-131.84 132.16a32 32 0 0 1-45.44-45.44l181.12-181.12a32 32 0 0 1 28.16-8 32 32 0 0 1 28.16 8l181.12 181.12a32 32 0 0 1-45.44 45.44zM512 896a512 512 0 1 1 512-512A512 512 0 0 1 512 896z m0-960a448 448 0 1 0 448 448 448 448 0 0 0-448-448z"  horiz-adv-x="1024" />

    
    <glyph glyph-name="xin3" unicode="&#59011;" d="M790.5 354.2m-201.4 0a201.4 201.4 0 1 1 402.8 0 201.4 201.4 0 1 1-402.8 0ZM883.2 612.1C834.1 700.7 743.4 755.6 637.1 757c-52.4 0.7-103.7-15.6-148-43.7l-1.3-0.8-1.1 0.7c-49.1 30.8-106.5 46.9-164.3 43.1C223 749.8 138.8 696 92.3 611.7c-61-110.5-37.2-248.9 52.3-338L440-20.5l14.2-14.2c18.5-18.5 48.4-18.5 66.9 0l14.4 14.4 0.1-0.1 295.5 294.2c89.5 89.2 113.4 227.7 52.1 338.3zM777 328.9l-289.2-288-289.2 288c-64.9 64.7-83.1 165.2-38.9 245.4 35.1 63.7 99.8 103.4 175.7 105.3 38.8 1 77-10.9 109.9-31.6l1.4-0.9 27-16.1c8.6-5.1 19.4-5.1 28.1 0l27.1 16.2s11.2 7.1 21 13.2c9.3 5.8 19.3 10.5 30 13 101.1 23 191.9-19.1 236-99 44.2-80.3 26-180.8-38.9-245.5z"  horiz-adv-x="1024" />

    
    <glyph glyph-name="shubiao3" unicode="&#58962;" d="M533.521017-128h-43.042034A330.322581 330.322581 0 0 0 160.156403 202.322581V635.745846A260.254154 260.254154 0 0 0 420.410557 896h183.178886a260.254154 260.254154 0 0 0 260.254154-260.254154v-433.423265a330.322581 330.322581 0 0 0-330.32258-330.322581zM420.410557 815.921799c-99.096774 0-180.175953-81.079179-180.175953-180.175953v-433.423265c0-138.134897 112.109482-250.244379 250.244379-250.24438h43.042034c138.134897 0 250.244379 112.109482 250.244379 250.24438V635.745846c0 99.096774-81.079179 180.175953-180.175953 180.175953zM521.509286 412.527859h-19.018572a100.097752 100.097752 0 0 0-100.097752 100.097752V659.769306a100.097752 100.097752 0 0 0 100.097752 100.097752h19.018572a100.097752 100.097752 0 0 0 100.097752-100.097752v-147.143695a100.097752 100.097752 0 0 0-100.097752-100.097752z m-19.018572 267.260997a20.01955 20.01955 0 0 1-20.019551-20.01955v-147.143695a20.01955 20.01955 0 0 1 20.019551-20.01955h19.018572a20.01955 20.01955 0 0 1 20.019551 20.01955V659.769306a20.01955 20.01955 0 0 1-20.019551 20.01955zM512.500489 694.803519a40.039101 40.039101 0 0 0-40.039101 40.039101V826.932551a40.039101 40.039101 0 0 0 80.078201 0v-92.089931a40.039101 40.039101 0 0 0-40.0391-40.039101zM424.414467 481.595308H215.210166a40.039101 40.039101 0 0 0 0 80.078201h209.204301a40.039101 40.039101 0 0 0 0-80.078201zM806.787879 481.595308H597.583578a40.039101 40.039101 0 0 0 0 80.078201h209.204301a40.039101 40.039101 0 0 0 0-80.078201z"  horiz-adv-x="1024" />

    
    <glyph glyph-name="new2" unicode="&#59152;" d="M846.769231 718.769231C661.661538 901.907692 362.338462 901.907692 177.230769 718.769231-5.907692 533.661538-5.907692 234.338462 177.230769 49.230769c185.107692-185.107692 484.430769-185.107692 667.569231 0 185.107692 185.107692 185.107692 484.430769 1.969231 669.538462z m-19.692308-374.153846c0-11.815385-7.876923-19.692308-19.692308-19.692308H590.769231c-9.846154 0-19.692308-9.846154-19.692308-19.692308v-216.615384c0-9.846154-9.846154-19.692308-19.692308-19.692308h-78.76923c-11.815385 0-19.692308 7.876923-19.692308 19.692308V305.230769c0 11.815385-7.876923 19.692308-19.692308 19.692308H216.615385c-11.815385 0-19.692308 7.876923-19.692308 19.692308v78.76923c0 9.846154 9.846154 19.692308 19.692308 19.692308h216.615384c11.815385 0 19.692308 7.876923 19.692308 19.692308V679.384615c0 9.846154 9.846154 19.692308 19.692308 19.692308h78.76923c9.846154 0 19.692308-7.876923 19.692308-19.692308v-216.615384c0-11.815385 7.876923-19.692308 19.692308-19.692308h216.615384c9.846154 0 19.692308-9.846154 19.692308-19.692308v-78.76923z"  horiz-adv-x="1024" />

    
    <glyph glyph-name="deng3" unicode="&#58899;" d="M578.663854 374.677905V470.483783c0 28.822622-18.294014 53.368859-43.901389 62.670793V873.238596C534.762465 885.808834 524.571298 896 512.001061 896s-22.761404-10.191166-22.761403-22.761404V533.154576c-25.609497-9.301933-43.901389-33.84817-43.901389-62.670793v-95.805878c-171.337659-30.33156-303.544805-175.427284-314.026724-352.754004h761.379032c-10.481918 177.326721-142.689064 322.422445-314.026723 352.754004zM512.001061-127.978777c79.629895 0 149.698939 41.687856 189.551027 104.37987h-379.102054c39.849965-62.692015 109.921132-104.379871 189.551027-104.37987z"  horiz-adv-x="1024" />

    
    <glyph glyph-name="fangdajing3" unicode="&#59464;" d="M480.653061 28.734694c-213.159184 0-386.612245 173.453061-386.612245 386.612245s173.453061 386.612245 386.612245 386.612245 386.612245-173.453061 386.612245-386.612245-173.453061-386.612245-386.612245-386.612245z m0 731.428571c-190.171429 0-344.816327-154.644898-344.816326-344.816326s154.644898-344.816327 344.816326-344.816327 344.816327 154.644898 344.816327 344.816327-154.644898 344.816327-344.816327 344.816326zM741.877551 394.44898c-11.493878 0-20.897959 9.404082-20.897959 20.897959 0 132.702041-107.62449 240.326531-240.326531 240.32653-11.493878 0-20.897959 9.404082-20.897959 20.89796s9.404082 20.897959 20.897959 20.897959c155.689796 0 282.122449-126.432653 282.122449-282.122449 0-11.493878-9.404082-20.897959-20.897959-20.897959zM909.061224-33.959184c-5.22449 0-10.44898 2.089796-14.628571 6.269388l-170.318367 170.318367c-8.359184 8.359184-8.359184 21.420408 0 29.779592 8.359184 8.359184 21.420408 8.359184 29.779592 0l170.318367-170.318367c8.359184-8.359184 8.359184-21.420408 0-29.779592-4.702041-4.179592-9.926531-6.269388-15.151021-6.269388z"  horiz-adv-x="1024" />

    
    <glyph glyph-name="xiazai" unicode="&#58905;" d="M512 524.8c-15.36 0-25.6-10.24-25.6-25.6v-414.72L353.28 204.8c-10.24 10.24-25.6 7.68-35.84-2.56-10.24-10.24-7.68-25.6 2.56-35.84l176.64-161.28c5.12-5.12 10.24-7.68 17.92-7.68 2.56 0 7.68 0 10.24 2.56 10.24 5.12 15.36 12.8 15.36 23.04V499.2c-2.56 12.8-12.8 25.6-28.16 25.6zM670.72 204.8l-110.08-99.84c-10.24-10.24-10.24-25.6-2.56-35.84 5.12-5.12 12.8-7.68 17.92-7.68 5.12 0 12.8 2.56 17.92 7.68l110.08 99.84c10.24 10.24 10.24 25.6 2.56 35.84-7.68 10.24-25.6 10.24-35.84 0zM773.12 527.36c-2.56 140.8-120.32 256-261.12 256S253.44 668.16 250.88 527.36C110.08 517.12 0 399.36 0 256c0-148.48 120.32-271.36 271.36-271.36 15.36 0 25.6 10.24 25.6 25.6s-10.24 25.6-25.6 25.6C148.48 35.84 51.2 135.68 51.2 256c0 120.32 97.28 220.16 220.16 220.16h2.56c7.68 0 15.36 2.56 20.48 7.68 5.12 5.12 7.68 12.8 7.68 20.48v17.92c0 115.2 94.72 209.92 209.92 209.92s209.92-94.72 209.92-209.92v-17.92c0-7.68 2.56-15.36 7.68-20.48 5.12-5.12 12.8-7.68 20.48-7.68h5.12c120.32 0 220.16-99.84 220.16-220.16s-99.84-220.16-220.16-220.16c-15.36 0-25.6-10.24-25.6-25.6s10.24-25.6 25.6-25.6C903.68-15.36 1024 107.52 1024 256c0 143.36-110.08 261.12-250.88 271.36z"  horiz-adv-x="1024" />

    
    <glyph glyph-name="guanfangbanben" unicode="&#58885;" d="M782.208 365.28L724.288 448l57.92 82.72a32 32 0 0 1-20.672 49.856l-99.456 17.536-17.536 99.456a32 32 0 0 1-49.856 20.672L512 660.288l-82.72 57.92a32 32 0 0 1-49.856-20.672l-17.536-99.456-99.456-17.504a32 32 0 0 1-20.672-49.856L299.712 448l-57.92-82.72a32 32 0 0 1 20.672-49.856l99.456-17.536 17.536-99.456a32 32 0 0 1 49.856-20.672L512 235.712l82.72-57.92a32 32 0 0 1 49.856 20.672l17.536 99.456 99.456 17.536a31.968 31.968 0 0 1 20.64 49.824z m-123.2 64.352l41.952-59.904-72.032-12.704a32 32 0 0 1-25.952-25.952l-12.704-72.032-59.904 41.952a32 32 0 0 1-36.704 0L433.76 259.04l-12.704 72.032a32 32 0 0 1-25.952 25.952l-72.032 12.704 41.952 59.904a32 32 0 0 1 0 36.704l-41.952 59.904 72.032 12.704a32 32 0 0 1 25.952 25.952l12.704 72.032 59.904-41.952a32 32 0 0 1 36.704 0l59.904 41.952 12.704-72.032a32 32 0 0 1 25.952-25.952l72.032-12.704-41.952-59.904a32 32 0 0 1 0-36.704zM512 861.088c-243.008 0-440-196.992-440-440a438.72 438.72 0 0 1 133.344-315.552 32 32 0 1 1 44.608 45.888A374.752 374.752 0 0 0 136 421.088c0 207.648 168.352 376 376 376s376-168.352 376-376c0-99.136-38.496-192.096-106.144-261.824a32 32 0 1 1 45.92-44.576A438.56 438.56 0 0 1 952 421.088c0 243.008-196.992 440-440 440zM704 134.912a32 32 0 0 1-32-32v-107.104l-142.24 94.848-0.064 0.032a32 32 0 0 1-11.552 4.736c-2.048 0.416-4.096 0.032-6.144 0.032s-4.096 0.352-6.144-0.032c-4.096-0.8-8-2.4-11.552-4.736l-0.064-0.032L352-4.224V96a32 32 0 0 1-64 0v-160c0-0.992 0.48-1.856 0.576-2.848a32.256 32.256 0 0 1 3.712-12.224c0.48-0.864 0.544-1.856 1.088-2.688 0.576-0.896 1.504-1.344 2.176-2.144a31.36 31.36 0 0 1 21.472-11.488c1.024-0.096 1.92-0.608 2.976-0.608 0.992 0 1.856 0.48 2.848 0.576a32.256 32.256 0 0 1 12.256 3.712c0.864 0.48 1.856 0.544 2.688 1.088L512 25.536l174.24-116.16c14.688-9.792 34.56-5.824 44.384 8.864a31.584 31.584 0 0 1 4.768 21.664c0.096 1.056 0.608 1.952 0.608 3.04V102.912a32 32 0 0 1-32 32z"  horiz-adv-x="1024" />

    
    <glyph glyph-name="changyongicon-" unicode="&#58901;" d="M512 725.333333A341.333333 341.333333 0 1 0 170.666667 384 341.333333 341.333333 0 0 0 512 725.333333m0 42.666667a384 384 0 1 1 384-384A384 384 0 0 1 512 768zM708.906667 362.66666699999996H318.293333a21.333333 21.333333 0 0 0 0 42.666666h390.613334a21.333333 21.333333 0 0 0 0-42.666666zM507.093333 188.79999999999995a21.333333 21.333333 0 0 0-16 7.253333 21.333333 21.333333 0 0 0 1.92 30.08l180.266667 157.866667-180.266667 157.866667a21.333333 21.333333 0 0 0 28.16 32.213333l198.613334-174.08a21.333333 21.333333 0 0 0 0-32l-198.613334-174.08a21.333333 21.333333 0 0 0-14.08-5.12z"  horiz-adv-x="1024" />

    
    <glyph glyph-name="changyongicon-1" unicode="&#58902;" d="M512 725.333333A341.333333 341.333333 0 1 0 170.666667 384 341.333333 341.333333 0 0 0 512 725.333333m0 42.666667a384 384 0 1 1 384-384A384 384 0 0 1 512 768zM705.706667 362.66666699999996H336.426667a21.333333 21.333333 0 1 0 0 42.666666h369.28a21.333333 21.333333 0 0 0 0-42.666666zM516.906667 188.79999999999995a21.333333 21.333333 0 0 0-14.08 5.12l-198.613334 174.08a21.333333 21.333333 0 0 0 0 32l198.613334 174.08a21.333333 21.333333 0 0 0 28.16-32.213333L350.72 384l180.266667-157.866667a21.333333 21.333333 0 0 0 2.346666-30.08 21.333333 21.333333 0 0 0-16.426666-7.253333z"  horiz-adv-x="1024" />

    
    <glyph glyph-name="shubiao4" unicode="&#59531;" d="M512 896a358.4 358.4 0 0 1-358.4-358.4v-307.2a358.4 358.4 0 0 1 716.8 0V537.6a358.4 358.4 0 0 1-358.4 358.4z m51.2-358.4H460.8V742.4h102.4z"  horiz-adv-x="1024" />

    
    <glyph glyph-name="new3" unicode="&#59008;" d="M965.76 320l-74.56 78.08a107.2 107.2 0 0 0-19.84 105.6l40.96 99.84a40.96 40.96 0 0 1-39.68 60.8l-107.84 0.64a107.2 107.2 0 0 0-88.64 60.48l-41.6 99.52a40.96 40.96 0 0 1-71.04 14.72l-78.08-74.24a107.2 107.2 0 0 0-105.6-19.84L280 786.24a40.96 40.96 0 0 1-60.8-39.68L216.96 640a107.2 107.2 0 0 0-60.48-88.64l-99.52-41.6a40.96 40.96 0 0 1-14.72-71.04l74.56-78.08a107.52 107.52 0 0 0 19.84-105.6L96 154.24a40.96 40.96 0 0 1 39.68-60.8l107.84-2.56A107.2 107.2 0 0 0 331.84 32l41.6-99.52a40.96 40.96 0 0 1 71.04-14.72l78.08 74.56a107.2 107.2 0 0 0 105.6 19.84l99.84-40.96a40.96 40.96 0 0 1 60.8 39.68l2.56 107.84a107.2 107.2 0 0 0 60.48 88.64l99.52 41.6a40.96 40.96 0 0 1 14.4 71.04z m-309.44-128c-18.56-3.2-43.2 0-79.36 34.56-25.28 24.96-102.72 118.08-154.88 181.12l37.76-187.52a73.92 73.92 0 0 0-1.92-39.68 51.84 51.84 0 0 0-65.6-29.12A64 64 0 0 0 352 209.28l-50.56 288A59.52 59.52 0 0 0 311.68 544a64 64 0 0 0 43.52 21.76A55.36 55.36 0 0 0 416 544c26.24-29.76 52.16-59.84 77.76-89.92 32-36.8 61.12-73.92 91.52-110.72l-39.04 195.52a64 64 0 0 0 3.2 37.12 48.64 48.64 0 0 0 39.04 32 52.8 52.8 0 0 0 40.96-9.28 71.36 71.36 0 0 0 24.64-47.04L704 265.28A55.68 55.68 0 0 0 656.32 192z"  horiz-adv-x="1024" />

    
    <glyph glyph-name="zhengjiuzhuqindian" unicode="&#58882;" d="M494.190083 896C324.175438 896 185.838178 755.65234 185.838178 582.866603a308.732251 308.732251 0 0 1 54.932824-176.534862l221.850366-321.392337a36.730553 36.730553 0 0 1 31.568715-16.300542 43.46811 43.46811 0 0 1 29.61265 13.801125l228.913934 327.912555v2.445081A310.796986 310.796986 0 0 1 494.190083 896z m179.740635-385.39913h-115.081821v-115.190491H436.431832v115.190491H321.241341V632.9636h115.190491V748.099756h122.417065v-115.136156h115.136156zM972.828309 112.704659c-0.978032 0-98.129258-23.79879-144.694471 38.523612-33.470445 44.772153-71.939722 53.465775-97.803248 53.139765v1.358378a39.773321 39.773321 0 0 1 15.53985 32.003396c0 21.299374-15.702855 38.632283-34.991829 38.632283s-34.991829-17.332909-34.991828-38.632283a39.773321 39.773321 0 0 1 15.539849-32.003396v-240.106972c-29.50398-5.433514-49.227635-21.734055-49.227635-41.45771 0-24.722488 30.156001-43.46811 70.146663-43.46811s70.092327 18.582617 70.092327 43.46811c0 20.864693-20.919028 37.273904-52.107397 41.946726v54.932824c14.670487 7.443914 40.044996 14.181471 82.698079 10.541017 95.358166-8.0416 166.863207 56.508543 169.85164 59.225299l36.676218 33.687786z m-265.698822 124.970816a3.91213 3.91213 0 1 0 3.912129-3.91213 3.91213 3.91213 0 0 0-3.912129 3.966465zM18.268614-119.197708a32.981428 32.981428 0 0 1 24.885493-8.693622 17.332909 17.332909 0 0 0 3.097103 0h599.533906a197.888571 197.888571 0 0 0-42.490077 80.144328H113.572445l116.874881 200.550992h72.102727a38.958294 38.958294 0 1 1 0 77.916587H209.745639a39.990661 39.990661 0 0 1-33.959461-18.582617l-165.72217-281.293006a37.056564 37.056564 0 0 1 0.326011-40.262337 96.227528 96.227528 0 0 1 7.878595-9.780325z"  horiz-adv-x="1024" />

    
    <glyph glyph-name="huiyuan-1" unicode="&#58963;" d="M777.9-3.5H246.1c-38.5 0-72.4 26-82.4 63.3l-97.8 391c-8.5 32 2.1 65.4 27.9 86.9s60.7 26 91 11.7l117.8-55.5c7-3.3 15.4-0.6 19.2 6.2L437 726.7c16 28.5 43.7 44.9 75 44.9s59.2-16.3 74.4-43.6l116.2-228.3c3.9-6.5 12.1-9 19-5.7l117.8 55.5c30.3 14.4 65.2 9.8 91-11.7 25.8-21.5 36.4-55.1 27.7-87.4l-97.7-390.2c-10.1-37.8-44-63.7-82.5-63.7zM148.2 487.3c-4.2 0-7.4-2.1-9.3-3.6-2.7-2.3-6.9-7.2-4.9-15.2l98-391.2c1.6-5.9 7.4-10.5 14.1-10.5h531.6c6.7 0 12.6 4.5 14.2 11L889.8 468c2.3 8.5-1.9 13.5-4.6 15.8-2.7 2.3-8.3 5.5-15.8 2.1l-117.8-55.6c-40.4-19-88.9-3.5-110.8 35.5l-0.6 1.2-115.9 227.8c-3 5.3-9.1 6.4-12.3 6.4-3.2 0-9.3-1-13-7.6L383.9 466.9c-22.5-40.2-71.1-55.7-111.4-36.7l-117.8 55.5c-2.4 1.2-4.5 1.6-6.5 1.6zM613.3 137.3H410.9c-19.4 0-35.2 15.8-35.2 35.2s15.8 35.2 35.2 35.2h202.5c19.4 0 35.2-15.8 35.2-35.2-0.2-19.4-15.9-35.2-35.3-35.2z"  horiz-adv-x="1024" />

    
    <glyph glyph-name="huiyuan3" unicode="&#58949;" d="M1024 539.8c0 36.8-30 66.8-66.8 66.8s-66.8-30-66.8-66.8c0-16.5 6-31.5 15.9-43.2l-183.7-83.5-178.7 357.5c20.7 11.3 34.8 33.4 34.8 58.6C578.8 866 548.8 896 512 896s-66.8-30-66.8-66.8c0-25.3 14.1-47.3 34.8-58.6L301.3 413.1l-183.7 83.5c9.9 11.7 15.9 26.7 15.9 43.2 0 36.8-30 66.8-66.8 66.8C30 606.6 0 576.7 0 539.8c0-30.9 21.2-56.9 49.7-64.5l129.4-409.7c2.9-9.3 11.5-15.6 21.2-15.6h623.3c9.7 0 18.3 6.3 21.2 15.6l129.4 409.7c28.6 7.6 49.8 33.6 49.8 64.5zM512 851.5c12.3 0 22.3-10 22.3-22.3S524.3 807 512 807s-22.3 10-22.3 22.3 10 22.2 22.3 22.2zM66.8 562.1c12.3 0 22.3-10 22.3-22.3s-10-22.3-22.3-22.3-22.3 10-22.3 22.3 10 22.3 22.3 22.3z m740.5-467.5H216.7L103.1 454.4l199.4-90.6c10.9-5 23.8-0.4 29.1 10.3L512 734.9 692.4 374c5.4-10.7 18.2-15.3 29.1-10.3l199.4 90.6-113.6-359.7z m149.9 423c-12.3 0-22.3 10-22.3 22.3s10 22.3 22.3 22.3 22.3-10 22.3-22.3-10-22.3-22.3-22.3zM779.1 5.6H244.9c-36.8 0-66.8-30-66.8-66.8s30-66.8 66.8-66.8h534.3c36.8 0 66.8 30 66.8 66.8-0.1 36.8-30 66.8-66.9 66.8z m0-89.1H244.9c-12.3 0-22.3 10-22.3 22.3s10 22.3 22.3 22.3h534.3c12.3 0 22.3-10 22.3-22.3s-10.1-22.3-22.4-22.3z"  horiz-adv-x="1024" />

    
    <glyph glyph-name="icon-" unicode="&#58958;" d="M512 768c51.863704 0 102.115556-10.145185 149.428148-30.151111 45.700741-19.342222 86.755556-47.028148 122.026667-82.299259 35.271111-35.271111 62.957037-76.325926 82.299259-122.026667 20.100741-47.407407 30.245926-97.659259 30.245926-149.522963s-10.145185-102.115556-30.151111-149.428148c-19.342222-45.700741-47.028148-86.755556-82.299259-122.026667-35.271111-35.271111-76.325926-62.957037-122.026667-82.299259-47.407407-20.100741-97.659259-30.245926-149.522963-30.245926s-102.115556 10.145185-149.428148 30.151111c-45.700741 19.342222-86.755556 47.028148-122.026667 82.299259-35.271111 35.271111-62.957037 76.325926-82.299259 122.026667-20.100741 47.407407-30.245926 97.659259-30.245926 149.522963s10.145185 102.115556 30.151111 149.428148c19.342222 45.700741 47.028148 86.755556 82.299259 122.026667 35.271111 35.271111 76.325926 62.957037 122.026667 82.299259 47.407407 20.100741 97.659259 30.245926 149.522963 30.245926m0 42.666667C276.385185 810.666667 85.333333 619.614815 85.333333 384s191.051852-426.666667 426.666667-426.666667 426.666667 191.051852 426.666667 426.666667S747.614815 810.666667 512 810.666667zM711.111111 263.111111c-5.499259 0-10.903704 2.085926-15.075555 6.257778L512 453.404444 327.964444 269.368889c-8.343704-8.343704-21.807407-8.343704-30.151111 0s-8.343704 21.807407 0 30.151111l199.111111 199.111111c8.343704 8.343704 21.807407 8.343704 30.151112 0l0.284444-0.284444 198.826667-198.826667c8.343704-8.343704 8.343704-21.807407 0-30.151111-4.171852-4.171852-9.576296-6.257778-15.075556-6.257778z"  horiz-adv-x="1024" />

    
    <glyph glyph-name="xiazai_huaban" unicode="&#58911;" d="M832 576H688c-17.67 0-32-14.33-32-32s14.33-32 32-32h144v-416H192V512h144c17.67 0 32 14.33 32 32s-14.33 32-32 32H192c-35.89 0-64-24.59-64-56v-432c0-31.41 28.11-56 64-56h640c35.89 0 64 24.59 64 56V520c0 31.41-28.11 56-64 56zM360.95 420.3c-12.5 12.5-32.75 12.5-45.25 0s-12.5-32.75 0-45.25l162.36-162.36c9.36-9.36 21.64-14.03 33.94-14.03s24.58 4.67 33.94 14.03L708.3 375.05c12.5 12.5 12.5 32.75 0 45.25s-32.75 12.5-45.25 0L544 301.25V800c0 17.67-14.33 32-32 32s-32-14.33-32-32v-498.75L360.95 420.3z"  horiz-adv-x="1024" />

    
    <glyph glyph-name="xiazai1" unicode="&#58925;" d="M356.245333 618.666667v-42.666667H164.693333c-30.186667 0-56.128-28.8-57.941333-66.346667L106.666667 505.429333v-456.192c0-38.186667 24.853333-68.352 54.72-70.442666L164.693333-21.333333h694.570667c30.186667 0 56.128 28.8 57.941333 66.346666l0.106667 4.224V505.429333c0 38.186667-24.853333 68.352-54.72 70.442667L859.306667 576h-190.933334v42.666667h190.933334c54.890667 0 98.368-48.661333 100.629333-108.373334l0.085333-4.864v-456.192c0-60.266667-42.026667-110.528-96.298666-113.130666L859.306667-64H164.714667c-54.890667 0-98.368 48.661333-100.629334 108.373333L64 49.237333V505.429333c0 60.266667 42.026667 110.528 96.298667 113.130667L164.693333 618.666667h191.530667zM544 832v-557.994667l118.848 118.826667L693.013333 362.666667 544 213.653333v-3.008h-3.008L512 181.632 330.986667 362.666667l30.165333 30.165333 140.181333-140.16V832h42.666667z"  horiz-adv-x="1024" />

    
    <glyph glyph-name="huiyuan4" unicode="&#58967;" d="M512 832C264.58 832 64 631.42 64 384s200.58-448 448-448 448 200.58 448 448S759.42 832 512 832z m0-72c207.66 0 376-168.34 376-376a374.24 374.24 0 0 0-66-212.88 333 333 0 0 1-119 152.47 260 260 0 0 0-382 0 333.08 333.08 0 0 1-119-152.48A374.28 374.28 0 0 0 136 384c0 207.66 168.34 376 376 376zM512 500m-188 0a188 188 0 1 1 376 0 188 188 0 1 1-376 0Z"  horiz-adv-x="1024" />

    
    <glyph glyph-name="xiazai2" unicode="&#58887;" d="M493.206588 411.105882a30.117647 30.117647 0 0 0 29.635765-24.69647l0.481882-5.421177v-396.468706l76.318118 76.378353 4.216471 3.493647a30.117647 30.117647 0 0 0 41.863529-41.923764l-3.433412-4.216471-127.819294-127.698823a29.997176 29.997176 0 0 0-13.613176-7.830589l-5.12-0.903529h-5.12a29.997176 29.997176 0 0 0-14.576942 5.240471l-4.156235 3.493647-127.759059 127.698823a30.117647 30.117647 0 0 0 38.430118 46.140235l4.156235-3.493647 76.318118-76.378353V380.988235a30.117647 30.117647 0 0 0 30.117647 30.117647z m0 434.477177A271.661176 271.661176 0 0 0 761.374118 616.508235l1.686588-12.649411h3.132235a220.581647 220.581647 0 0 0 0-440.500706l-11.745882-0.361412h-107.52a30.117647 30.117647 0 0 0-5.421177 59.873882l5.421177 0.481883h107.52a160.225882 160.225882 0 0 1 10.179765 320.150588l-10.179765 0.301176h-19.877647a30.117647 30.117647 0 0 0-30.238118 30.117647v4.096a211.245176 211.245176 0 0 1-422.128941 7.529412l-0.301177-11.565176a29.997176 29.997176 0 0 0-24.69647-29.696l-5.421177-0.481883h-19.998117a160.225882 160.225882 0 0 1-10.11953-320.150588l10.11953-0.301176h108.122353a30.117647 30.117647 0 0 0 5.421176-59.813647l-5.421176-0.542118H231.905882a220.521412 220.521412 0 0 0-11.685647 440.801882l3.132236 0.120471a271.600941 271.600941 0 0 0 269.854117 241.543529z"  horiz-adv-x="1024" />

    
    <glyph glyph-name="deng4" unicode="&#58987;" d="M512 743c141.385 0 256-114.615 256-256 0-94.75-51.474-177.476-127.983-221.742l-0.017-0.008V167c0-18.778-15.222-34-34-34H418c-18.778 0-34 15.222-34 34v98.248l-0.047 0.027C307.46 309.545 256 392.263 256 487c0 141.385 114.615 256 256 256z m94-503H418v-73h188v73z m-94 170c-36.55 0-71.312-102.233-102.766-136.007H614.73C583.286 307.785 548.537 410 512 410z m0 299c-122.607 0-222-99.393-222-222 0-74.564 37.044-142.642 97.05-183.535l1.603-1.08 0.76 1.01 0.776 1.051c5.53 7.557 10.377 15.76 23.247 38.935l6.794 12.264c13.873 25 22.45 39.097 32.511 52.17 7.322 9.515 14.677 17.208 22.662 23.153C486.432 439.18 498.615 444 512 444c13.386 0 25.57-4.822 36.598-13.036 7.983-5.946 15.336-13.64 22.657-23.155l1.001-1.311 0.714-0.947c9.013-12.026 17.12-25.366 29.419-47.453l9.25-16.687c12.478-22.447 17.105-30.18 22.72-37.75l0.967-1.289 1.6 1.077c59.375 40.451 96.274 107.516 97.061 181.148L734 487c0 122.607-99.393 222-222 222zM642.108 507.108c6.639-6.64 6.639-17.403 0-24.042l-21.214-21.213c-6.638-6.64-17.402-6.64-24.041 0-6.64 6.639-6.64 17.403 0 24.041l21.213 21.214c6.639 6.639 17.403 6.639 24.042 0z m-236.174 0l21.213-21.214c6.64-6.638 6.64-17.402 0-24.041-6.639-6.64-17.403-6.64-24.041 0l-21.214 21.213c-6.639 6.639-6.639 17.403 0 24.042 6.64 6.639 17.403 6.639 24.042 0zM512 561c9.389 0 17-7.611 17-17v-30c0-9.389-7.611-17-17-17s-17 7.611-17 17v30c0 9.389 7.611 17 17 17zM587 59c9.389 0 17-7.611 17-17s-7.611-17-17-17H437c-9.389 0-17 7.611-17 17s7.611 17 17 17h150z m0 54c9.389 0 17-7.611 17-17s-7.611-17-17-17H437c-9.389 0-17 7.611-17 17s7.611 17 17 17h150z"  horiz-adv-x="1024" />

    
    <glyph glyph-name="huiyuan5" unicode="&#59360;" d="M514.56-20.48a46.13632 46.13632 0 0 0-34.08384 15.09888L63.104 455.13216a45.69088 45.69088 0 0 0-2.2784 58.74688L259.584 770.65728A46.30528 46.30528 0 0 0 295.936 788.48h437.248a46.28992 46.28992 0 0 0 36.352-17.82272l198.76352-256.78336a45.696 45.696 0 0 0-2.28864-58.74176l-417.3568-460.50816A46.11584 46.11584 0 0 0 514.56-20.48zM122.72128 486.85056l391.83872-432.34816 391.8336 432.34816-182.8608 236.25216h-417.9456z m188.7488 243.85024l-0.03072-0.04096a0.10752 0.10752 0 0 1 0.0256 0.03072zM721.69984 508.416a32.85504 32.85504 0 0 1-46.2592-2.69824l-7.72096-8.64256c-21.376-23.58272-110.00832-121.344-153.94304-169.64096a184460.16512 184460.16512 0 0 0-153.94816 169.64096l-7.72096 8.64256a32.71168 32.71168 0 0 1-48.96768-43.38176l3.36896-3.77344-0.04096-0.03584 4.86912-5.37088c30.11072-33.6896 133.30432-148.992 168.78592-186.47552a46.08 46.08 0 0 1 33.3824-14.3616h0.512a46.08 46.08 0 0 1 33.3824 14.3616c35.4816 37.49888 138.6752 152.78592 168.78592 186.47552l4.86912 5.37088-0.03584 0.03584 3.36896 3.77344a32.56832 32.56832 0 0 1-2.688 46.08z"  horiz-adv-x="1024" />

    
    <glyph glyph-name="huiyuan6" unicode="&#58946;" d="M736 341.333333a181.333333 181.333333 0 0 0 181.333333-181.333333V21.333333a42.666667 42.666667 0 0 0-42.666666-42.666666H149.333333a42.666667 42.666667 0 0 0-42.666666 42.666666v138.666667a181.333333 181.333333 0 0 0 181.333333 181.333333h448zM512 810.666667a170.666667 170.666667 0 0 0 170.666667-170.666667v-85.333333a170.666667 170.666667 0 1 0-341.333334 0v85.333333a170.666667 170.666667 0 0 0 170.666667 170.666667z"  horiz-adv-x="1024" />

    
    <glyph glyph-name="xin4" unicode="&#59085;" d="M923 612.4c-13.4 31.1-32.6 58.9-56.9 82.8-24.3 23.8-52.5 42.4-84 55.5-32.5 13.5-66.9 20.3-102.4 20.3-49.3 0-97.4-13.5-139.2-39-10-6.1-19.5-12.8-28.5-20.1-9 7.3-18.5 14-28.5 20.1-41.8 25.5-89.9 39-139.2 39-35.5 0-69.9-6.8-102.4-20.3-31.4-13-59.7-31.7-84-55.5-24.4-23.9-43.5-51.7-56.9-82.8-13.9-32.3-21-66.6-21-101.9 0-33.3 6.8-68 20.3-103.3 11.3-29.5 27.5-60.1 48.2-91 32.8-48.9 77.9-99.9 133.9-151.6 92.8-85.7 184.7-144.9 188.6-147.3l23.7-15.2c10.5-6.7 24-6.7 34.5 0l23.7 15.2c3.9 2.5 95.7 61.6 188.6 147.3 56 51.7 101.1 102.7 133.9 151.6 20.7 30.9 37 61.5 48.2 91 13.5 35.3 20.3 70 20.3 103.3 0.1 35.3-7 69.6-20.9 101.9zM512 81.2S156 309.3 156 510.5C156 612.4 240.3 695 344.3 695c73.1 0 136.5-40.8 167.7-100.4C543.2 654.2 606.6 695 679.7 695c104 0 188.3-82.6 188.3-184.5 0-201.2-356-429.3-356-429.3z"  horiz-adv-x="1024" />

    
    <glyph glyph-name="download" unicode="&#58936;" d="M903 133c-13.3 0-24-10.7-24-24v-68c0-13.2-10.8-24-24-24H169c-13.2 0-24 10.8-24 24v68c0 13.3-10.7 24-24 24s-24-10.7-24-24v-92c0-26.4 21.6-48 48-48h734c26.4 0 48 21.6 48 48v92c0 13.3-10.7 24-24 24zM693 434.5c-9.3 9.3-24.6 9.3-33.9 0L536 311.4V775c0 13.2-10.8 24-24 24s-24-10.8-24-24v-463.6L364.9 434.5c-9.3 9.3-24.6 9.3-33.9 0-9.3-9.3-9.3-24.6 0-33.9l164-164c9.3-9.3 24.6-9.3 33.9 0l164 164c9.5 9.3 9.5 24.6 0.1 33.9z"  horiz-adv-x="1024" />

    
    <glyph glyph-name="new" unicode="&#58880;" d="M511.656169 814.481382c-245.792009 0-428.544263-201.248514-428.544263-436.469769 0-20.75265 4.564969-82.371032 11.870352-99.737562l5.694699-21.7647c1.760087-10.998495 10.970866-19.589151 22.570042-19.589151 10.215666 0 20.557198 8.247848 21.962198 17.540492l0.563842 5.091972-2.761903 15.899108c-3.853771 16.928554-12.226462 80.751139-12.226462 102.558817 0 209.074759 162.734338 392.476813 380.870474 389.153114 210.618928-3.198855 381.411803-169.518858 381.411803-378.593618 0-209.05634-170.793898-378.574175-381.411803-378.574175-75.057463 0-144.879692 21.828145-203.898877 59.005882-0.106424-0.074701-0.2415-0.163729-0.350994-0.2415-10.188037 5.068436-23.5166 3.589758-33.249265-4.641717-25.316595-23.528879-50.386574-37.867446-71.118757-46.620807 5.740748 39.59581 7.02909 89.065502 5.086855 109.450784 0 3.743254-0.713244 7.600095-2.471284 11.32186-5.738701 12.325723-19.261693 18.232247-30.191626 13.211906-5.275143-2.40477-8.918114-6.919597-10.719132-12.292977l-1.213641-7.652284c0-1.892093 0.167822-3.78521 0.607844-5.708002 1.780553-21.035082 6.762007-77.193103-17.188474-126.655631-1.696642-3.983731-2.463098-8.204869-2.424212-12.370749-0.024559-0.130983-0.065492-0.257873-0.086981-0.391926-2.219551-13.025665 7.118118-25.446555 20.872377-27.746948 0.951675-0.157589 1.893116-0.242524 2.827395-0.288572 3.37998-0.303922 6.740518 0.151449 9.893324 1.309832 27.868721 5.812379 91.071182 33.57877 124.253932 57.370639 61.930491-34.542724 133.278469-54.386678 209.374588-54.386678 236.997716 0 429.086615 190.68697 429.084569 425.90311C940.740738 623.803621 748.652861 814.481382 511.656169 814.481382zM226.169089 469.775572 226.169089 300.92391l36.719296 0 0 99.638301c0 6.085602 0.927115 11.836583 2.902096 17.320481 1.912559 5.418406 4.618181 10.168594 8.043187 14.178931 3.430122 4.010337 7.652284 7.224542 12.596899 9.495258 4.943592 2.276856 10.54824 3.413749 16.745383 3.413749 10.945283 0 18.989493-3.010567 24.128537-8.965186 5.140067-6.014994 7.91118-15.647375 8.375761-28.888957L335.680249 300.92391l36.719296 0L372.399545 416.882921c0 19.190061-5.206582 33.565467-15.754822 43.13338-10.547217 9.56075-24.923646 14.377452-43.183522 14.377452-10.945283 0-20.901029-2.672876-29.934776-8.025791-9.032724-5.352915-16.286941-12.704346-21.890566-22.065552l-0.660032 0.669242 0 24.804942L226.169089 469.776595zM559.64923 412.331255c-3.097548 11.904121-8.106632 22.403243-14.969946 31.56695-6.856152 9.16166-15.493879 16.515139-25.910113 22.065552-10.41521 5.616928-22.152533 8.363482-35.270295 8.363482-12.459776 0-23.600511-2.342348-33.491789-7.15905-9.894348-4.745071-18.328437-11.233855-25.254174-19.392676-6.989181-8.157797-12.329816-17.654079-16.08842-28.41926-3.75758-10.836813-5.603625-22.203698-5.603625-34.174334 0-13.039991 1.714038-25.009603 5.278213-35.913954 3.490497-10.896164 8.766664-20.193925 15.752776-28.085662 6.994298-7.888667 15.498996-13.972223 25.584702-18.321274 10.083659-4.348028 21.688975-6.556323 34.81083-6.556323 8.965186 0 17.667382 1.269923 25.91216 3.745301 8.239662 2.538823 15.754822 6.218632 22.414499 11.168364 6.595208 4.882194 12.328793 10.901281 17.012466 18.122753 4.748141 7.157004 8.106632 15.315824 10.020214 24.479531l-34.80776 0c-3.234671-9.363252-8.114818-16.388249-14.638395-21.067828-6.528694-4.682649-15.165398-7.019881-25.91216-7.019881-7.714705 0-14.374382 1.337461-19.97903 4.076852-5.603625 2.740414-10.151197 6.418176-13.843286 10.969842-3.692089 4.546549-6.398734 9.897418-8.244778 15.97995-1.768273 6.0416-2.666736 12.285814-2.679016 18.790972l122.346489 0C563.537793 388.193509 562.748824 400.494673 559.64923 412.331255zM439.72286 400.229636c0.195451 6.287193 1.449002 12.169157 3.690042 17.654079 2.240017 5.418406 5.273097 10.168594 9.03477 14.178931 3.75758 4.010337 8.30413 7.224542 13.509688 9.495258 5.212722 2.276856 11.076266 3.413749 17.540492 3.413749 6.197142 0 11.867282-1.269923 16.946974-3.745301 5.01113-2.540869 9.296737-5.821589 12.850679-9.830903 3.562129-4.016477 6.333242-8.760524 8.375761-14.179954 2.042519-5.483898 3.295046-11.100826 3.692089-16.984836L439.72286 400.23066zM695.730535 426.311665 696.390567 426.311665 727.311811 300.856371 765.027807 300.856371 817.181631 469.775572 779.796162 469.775572 745.972822 343.654107 745.313813 343.654107 715.38006 469.775572 678.328189 469.775572 647.075395 343.654107 646.415362 343.654107 613.910041 469.775572 574.945611 469.775572 626.505917 300.856371 665.137773 300.856371Z"  horiz-adv-x="1024" />

    
    <glyph glyph-name="new1" unicode="&#58920;" d="M887.872 630.4 136.128 630.4C96.288 630.4 64 598.112 64 558.272l0-349.44c0-39.84 32.288-72.128 72.128-72.128l751.744 0c39.84 0 72.128 32.288 72.128 72.128l0 349.44C960 598.112 927.712 630.4 887.872 630.4L887.872 630.4zM323.04 269.984 271.584 269.984l-97.632 189.504 0-188.48L143.168 271.008l0 224.096 45.568 0 100.448-194.336 3.04 0 0 195.36 30.784 0L323.008 269.984 323.04 269.984zM527.072 399.328l0-30.784-125.344-0.064c0.032-2.304 0.064-4.416 0.064-6.368l0-0.16c0.128-39.52 12.672-59.552 37.28-59.552l88 0 0-30.784-88 0c-19.392 0-35.904 7.296-47.776 21.12-13.344 15.552-20.16 38.784-20.288 69.056-0.16 11.584-0.256 29.12-0.256 53.6 0 50.944 35.392 75.072 68.512 80.672l1.44 0.224c13.728 1.376 79.168 0.448 86.592 0.352l-0.448-30.784c-27.936 0.416-72.48 0.704-82.56-0.16-12.96-2.208-42.752-11.552-42.752-50.304 0-5.76 0-11.104 0-16.096L527.072 399.328 527.072 399.328zM815.872 269.984l-45.76 0-45.696 180.224-50.88-180.224-47.104 0L560.768 496l33.568 0 58.048-184.992 1.92 1.024 51.2 184.608 38.848 0 49.312-194.368 60.192 193.792 32.416 0L815.872 269.984 815.872 269.984zM815.872 269.984"  horiz-adv-x="1024" />

    
    <glyph glyph-name="7" unicode="&#58897;" d="M489.511311 569.976692M512.001535 834.627211c-248.877277 0-450.629257-201.727421-450.629257-450.625164 0-248.868067 201.75198-450.630281 450.629257-450.630281 248.873184 0 450.625164 201.762213 450.625164 450.630281C962.621583 632.904906 760.874719 834.627211 512.001535 834.627211L512.001535 834.627211zM512.001535-30.574087c-228.965785 0-414.576133 185.631838-414.576133 414.574087 0 228.970902 185.610348 414.574087 414.576133 414.574087 228.961692 0 414.569994-185.603185 414.569994-414.574087C926.571529 155.057751 740.963227-30.574087 512.001535-30.574087L512.001535-30.574087zM264.611122 385.555425c0 126.08258 40.86471 186.881294 107.145276 186.881294 65.782216 0 106.646925-60.798714 106.646925-186.881294 0-127.576607-40.86471-189.373045-106.646925-189.373045C305.475831 196.18238 264.611122 257.978818 264.611122 385.555425zM449.499016 385.555425c0 108.141976-30.897707 162.462139-77.742619 162.462139-47.343261 0-78.240969-54.320163-78.240969-162.462139 0-110.134353 30.897707-164.953889 78.240969-164.953889C418.601308 220.601536 449.499016 275.420049 449.499016 385.555425zM712.622762 540.541289 528.730545 540.541289l0 25.415856 219.273029 0 0-17.442254c-86.213547-113.125477-104.154151-203.825199-109.637026-345.854982l-31.396057 0C612.951715 347.680816 640.360971 439.875588 712.622762 540.541289z"  horiz-adv-x="1024" />

    
    <glyph glyph-name="xin" unicode="&#58944;" d="M700.856275 740.457458c-74.768891 0-144.295384-72.696696-190.046381-127.260405C465.073224 667.773042 395.563104 740.457458 320.754305 740.457458c-134.789892 0-244.443291-105.780185-244.443291-235.799424 0-77.56968 39.277562-131.98808 70.844511-175.712931 91.752704-126.998439 322.464249-285.038872 332.234777-291.701618 9.410324-6.414083 20.424168-9.629311 31.401174-9.629311 11.005658 0 21.998013 3.215228 31.397081 9.629311 9.782807 6.662747 240.514819 164.703179 332.23887 291.701618 31.586392 43.723827 70.873164 98.143251 70.873164 175.712931C945.299567 634.678296 835.645145 740.457458 700.856275 740.457458L700.856275 740.457458zM700.856275 740.457458"  horiz-adv-x="1024" />

    
    <glyph glyph-name="guanfang2" unicode="&#59125;" d="M384 128l320 0 0 64L384 192 384 128zM384 384l320 0L704 448 384 448 384 384zM832 768 256 768C185.6 768 128 710.4 128 640l0-576c0-70.4 57.6-128 128-128l576 0c70.4 0 128 57.6 128 128L960 640C960 710.4 902.4 768 832 768zM768 352C768 334.08 753.92 320 736 320L384 320l0-64 352 0c17.92 0 32-14.08 32-32l0-128c0-17.92-14.08-32-32-32l-384 0C334.08 64 320 78.08 320 96l0 384C320 497.92 334.08 512 352 512l384 0C753.92 512 768 497.92 768 480L768 352zM832 544C832 526.08 817.92 512 800 512 782.08 512 768 526.08 768 544L768 576 320 576l0-32C320 526.08 305.92 512 288 512S256 526.08 256 544l0 64C256 625.92 270.08 640 288 640L512 640 512 672C512 689.92 526.08 704 544 704 561.92 704 576 689.92 576 672L576 640l224 0C817.92 640 832 625.92 832 608L832 544z"  horiz-adv-x="1024" />

    
    <glyph glyph-name="guanfang" unicode="&#59368;" d="M832 768 256 768C185.6 768 128 710.4 128 640l0-576c0-70.4 57.6-128 128-128l576 0c70.4 0 128 57.6 128 128L960 640C960 710.4 902.4 768 832 768zM896 64c0-35.2-28.8-64-64-64L256 0c-35.2 0-64 28.8-64 64L192 640c0 35.2 28.8 64 64 64l576 0c35.2 0 64-28.8 64-64L896 64zM800 640 576 640 576 672C576 689.92 561.92 704 544 704 526.08 704 512 689.92 512 672L512 640 288 640C270.08 640 256 625.92 256 608l0-64C256 526.08 270.08 512 288 512 305.92 512 320 526.08 320 544L320 576l448 0 0-32C768 526.08 782.08 512 800 512S832 526.08 832 544l0 64C832 625.92 817.92 640 800 640zM736 512l-384 0C334.08 512 320 497.92 320 480l0-384C320 78.08 334.08 64 352 64l384 0c17.92 0 32 14.08 32 32l0 128c0 17.92-14.08 32-32 32L384 256 384 320l352 0C753.92 320 768 334.08 768 352l0 128C768 497.92 753.92 512 736 512zM704 192l0-64L384 128l0 64L704 192zM704 384 384 384 384 448l320 0L704 384z"  horiz-adv-x="1024" />

    
    <glyph glyph-name="search" unicode="&#58915;" d="M703.722 252.105c36.472 58.77 57.825 129.217 57.825 205.042 0 205.042-155.362 371.317-347.017 371.317-191.655 0-347.017-166.275-347.017-371.317 0-204.998 155.363-371.295 347.017-371.295 101.925 0 193.32 47.34 256.792 122.22l-3.442-4.838 247.657-263.7 40.905 43.808-252.72 268.762zM414.552 148.312c-159.705 0-289.17 138.24-289.17 308.835 0 170.617 129.465 308.858 289.17 308.858 159.683 0 289.192-138.24 289.192-308.857-0.023-170.595-129.51-308.835-289.192-308.835z"  horiz-adv-x="1024" />

    
    <glyph glyph-name="yooxi" unicode="&#58929;" d="M513.371742-98.558457c-66.332754 0-130.691551 12.994965-191.287651 38.625716-58.519812 24.75173-111.072725 60.182684-156.197458 105.307418-45.125757 45.125757-80.555687 97.677647-105.308441 156.198481C34.949488 262.168234 21.9535 326.528054 21.9535 392.860808s12.995989 130.691551 38.625716 191.287651c24.75173 58.520835 60.182684 111.072725 105.308441 156.198481 45.124733 45.125757 97.677647 80.555687 156.197458 105.308441 60.5961 25.629727 124.954897 38.625716 191.287651 38.625716s130.692574-12.995989 191.288674-38.625716c58.520835-24.75173 111.072725-60.182684 156.198481-105.308441s80.556711-97.677647 105.307418-156.198481c25.63075-60.5961 38.625716-124.954897 38.625716-191.287651s-12.994965-130.692574-38.625716-191.288674c-24.75173-58.520835-60.182684-111.072725-105.307418-156.198481s-97.677647-80.556711-156.198481-105.307418C644.064316-85.563492 579.70552-98.558457 513.371742-98.558457zM513.371742 848.464357c-251.220648 0-455.603549-204.3829-455.603549-455.603549s204.3829-455.604572 455.603549-455.604572c251.220648 0 455.604572 204.383924 455.604572 455.604572S764.59239 848.464357 513.371742 848.464357zM114.031615 258.53959l3.1262 32.822546 6.095835 111.285572 1.719154 44.858674 0 24.382317c16.177448-0.209778 30.473035-0.313132 42.893926-0.313132 8.870018 0 21.340027 0.103354 37.415145 0.313132l66.720587-121.335463 9.196453-17.825994c1.174756 17.510816 2.376117 42.059931 3.607154 73.6453 1.228991 31.584346 1.843998 53.422723 1.843998 65.516156 12.802584-0.209778 23.057135-0.313132 30.759561-0.313132 3.538593 0 13.739932 0.103354 30.602995 0.313132l-3.751441-46.576805-7.034207-129.417535-0.937348-37.355793c-13.557784 0.207731-26.227338 0.312108-38.008662 0.312108-9.803273 0-23.356964-0.104377-40.665165-0.312108-5.412266 10.213619-9.419534 17.616216-12.020778 22.203698l-26.224268 44.562938c-8.637728 14.59337-16.600073 28.561499-23.88192 41.905412-4.787026 8.442276-9.729595 17.720593-14.82873 27.831882l-3.363607-74.114998-1.601474-62.388932c-12.906961 0.207731-22.741957 0.312108-29.506011 0.312108C140.46566 258.850675 129.747551 258.747321 114.031615 258.53959zM376.459512 258.53959c2.611477 26.8843 4.51892 49.390897 5.720282 67.520813 1.201361 18.131963 2.402723 42.22673 3.604084 72.28942 1.201361 30.060643 1.803066 49.989531 1.803066 59.784618l-0.156566 13.754259c24.585955-0.209778 54.329373-0.313132 89.233324-0.313132 32.193213 0 60.581774 0.103354 85.168752 0.313132l-0.312108-5.140067c-0.105401-1.245364-0.366344-5.763261-0.782829-13.551644l-0.937348-16.980743c-0.210801-3.63683-0.312108-7.324826-0.312108-11.060917-20.11206 0.831948-36.991496 1.25048-50.641377 1.25048-15.004739 0-25.139563-0.026606-30.400381-0.077771-5.262864-0.054235-13.468756-0.288572-24.617677-0.704035l-1.898233-35.948747c12.299117-0.313132 26.630521-0.468674 42.993187-0.468674 5.836939 0 21.366633 0.363274 46.590108 1.093914-1.043772-13.338796-2.032286-29.228695-2.967588-47.671743-18.018376 0.206708-31.867802 0.312108-41.550325 0.312108-14.372336 0-30.461779-0.36532-48.270377-1.092891l-1.858324-37.981033 17.963117 0c5.308913 0 16.296151 0.155543 32.956599 0.468674l32.335453 0.781806c4.78805 0.103354 12.806677 0.520863 24.052812 1.251503-1.251503-15.423271-2.294252-31.365358-3.127224-47.828308-25.425066 0.207731-53.29788 0.312108-83.619466 0.312108l-68.77334-0.155543L376.459512 258.53959zM629.705284 258.53959l-5.319146 28.758997c-1.25355 6.773264-3.181459 16.256242-5.786797 28.447912l-25.499767 116.756167-9.230222 39.388079c13.140275-0.209778 23.777543-0.313132 31.912827-0.313132 9.179057 0 19.814278 0.103354 31.91385 0.313132 2.813069-16.98586 5.054109-29.438473 6.725168-37.355793l13.141298-62.989613c2.710738-13.546527 5.734608-30.062689 9.073656-49.54644l5.14416 21.881356 18.561751 72.211649 12.789281 55.79884c14.274098-0.209778 26.361391-0.313132 36.262902-0.313132 10.730389 0 22.765493 0.103354 36.104289 0.313132l9.877975-65.802682 13.644765-83.778078 6.090718 22.977317c1.14508 3.958148 2.342348 7.970532 3.591805 12.035104 1.251503 4.064572 3.855818 12.136412 7.810896 24.225751l19.056008 60.019978 8.901741 30.321586c12.597923-0.105401 23.011086-0.156566 31.236422-0.156566 9.266038 0 19.628036 0.051165 31.080879 0.156566l-60.601216-181.621501-9.682523-31.728632c-15.632025 0.207731-29.284977 0.312108-40.955784 0.312108-12.300141 0-25.897833-0.104377-40.798195-0.312108l-3.590781 21.413706-13.730723 74.553996c-0.726547 4.479011-1.378393 9.090029-1.950422 13.833053-0.572028 4.740978-1.37737 12.113899-2.418073 22.116717l-5.473665-24.224728c-1.356904-5.420453-2.76395-10.892071-4.224208-16.411785l-25.179472-91.279936c-15.737426 0.207731-28.816303 0.312108-39.237653 0.312108C657.898393 258.850675 644.81747 258.747321 629.705284 258.53959z"  horiz-adv-x="1024" />

    
    <glyph glyph-name="shouji54" unicode="&#58976;" d="M769.458 863.46h-491.279c-34.075 0-61.704-27.629-61.704-61.704v-803.789c0-34.075 27.629-61.704 61.704-61.704h491.279c34.075 0 61.704 27.629 61.704 61.704v803.789c0 34.075-27.629 61.704-61.704 61.704zM278.18 808.202h491.279c3.581 0 6.447-2.865 6.447-6.447v-545.513h-504.172v545.513c0 3.581 2.865 6.447 6.447 6.447zM769.458-8.48h-491.279c-3.581 0-6.447 2.865-6.447 6.447v203.019h504.172v-203.019c0-3.479-2.865-6.447-6.447-6.447zM464.622 98.453c-0-33.343 27.030-60.374 60.374-60.374s60.374 27.030 60.374 60.374c0 33.343-27.030 60.374-60.374 60.374-33.343 0-60.374-27.030-60.374-60.374z"  horiz-adv-x="1024" />

    
    <glyph glyph-name="xin1" unicode="&#59059;" d="M893.456828 186.944995M491.889987 558.060291M568.154951 557.006286M527.32401 19.804301c-3.564175 0-7.119141 0.976234-10.256598 2.928702-16.664541 10.379395-408.355455 256.871345-436.366416 500.994342-8.237615 71.78493 15.535835 136.232754 70.656223 191.560874 37.954427 42.778292 91.974761 66.333778 152.175865 66.333778 77.613682 0 158.166299-39.422871 223.789902-108.884896 65.623603 69.462025 146.176221 108.884896 223.780693 108.884896 60.191894 0 114.212228-23.555485 152.157445-66.333778 55.489802-55.698556 79.396281-120.497375 71.045079-192.603623-28.294416-244.245793-420.09073-489.63769-436.754249-499.970012C534.414499 20.771325 530.869766 19.804301 527.32401 19.804301zM303.534108 742.796736c-49.110511 0-92.960205-19.052938-123.463939-53.650921-0.265036-0.302899-0.549515-0.597611-0.833995-0.881067-47.28084-47.28084-66.893526-99.661837-59.954487-160.109558 23.517623-204.964138 346.068853-425.285033 408.061766-465.865263 62.049195 40.456411 384.695592 259.981173 408.393317 464.888006 7.033184 60.750619-12.71151 113.444748-60.352553 161.085792-0.293689 0.284479-0.568958 0.578168-0.833995 0.8913-30.493501 34.588773-74.333986 53.641711-123.44552 53.641711-72.154343 0-148.346653-40.721447-209.021547-111.710244-3.686972-4.313236-9.080819-6.7968-14.759145-6.7968l0 0c-5.678326 0-11.07115 2.483564-14.759145 6.7968C451.889971 702.075289 375.697661 742.796736 303.534108 742.796736z"  horiz-adv-x="1024" />

    
    <glyph glyph-name="phone" unicode="&#58895;" d="M351.988 764.155c-22.174 0-45.687-23.411-45.687-45.687v-639.606c0-22.375 24.003-45.687 45.687-45.687h319.804c20.456 0 45.686 23.434 45.686 45.687l-0 639.607c0 22.397-23.557 45.687-45.686 45.687M466.203 718.47h114.216c12.626 0 22.597-5.097 22.597-11.432 0-6.313-11.912-11.41-22.597-11.41h-137.060c-11.455 0-22.509 5.097-22.509 11.41 0 6.335 11.165 11.432 22.509 11.432h22.843zM512.068 78.74c-12.224 0-23.155 10.151-23.155 22.955 0 12.806 10.931 23.010 23.155 23.010 12.894 0 22.833-10.205 22.833-23.010 0-12.804-9.939-22.955-22.833-22.955v0zM671.792 170.235h-319.804l-0 479.705h319.804v-479.705z"  horiz-adv-x="1024" />

    
    <glyph glyph-name="71" unicode="&#58881;" d="M918.737608 530.844439c0 0-57.480132 300.156174-398.154116 300.156174S90.024339 570.142467 90.024339 399.556301s101.884458-429.995311 429.995311-429.995311c337.319585 0 398.717957 306.480206 398.717957 306.480206s4.3951 17.092283 19.971867 17.22736c19.596314 0.168846 14.937201-18.277272 14.937201-18.277272S902.381082-46.302303 519.144724-46.302303 72.377424 265.134799 72.377424 399.524578 135.02423 847.953727 518.694469 847.953727c308.968887 0 394.023028-212.199936 394.023028-212.199936l54.733579 0c0 0 20.189831 2.197038 14.049994-14.175861l-47.514153-89.901543C933.986917 531.675364 925.55999 518.224004 918.737608 530.844439zM945.379385 358.580051m-18.256806 0a17.841 17.841 0 1 0 36.513612 0 17.841 17.841 0 1 0-36.513612 0ZM398.134673 597.414601l-11.404748-26.155706 246.720148 0 0-2.612501L416.22775 163.25648l32.18298 0 219.901339 408.002414 0 26.155706L398.134673 597.414601z"  horiz-adv-x="1024" />

    
    <glyph glyph-name="jiantouzuo" unicode="&#58898;" d="M511.999488 826.068278c-244.161653 0-442.086391-197.895139-442.086391-442.068278 0-244.10867 197.924738-442.068278 442.086391-442.068278 244.162676 0 442.086391 197.959607 442.086391 442.068278C954.085879 628.173139 756.162165 826.068278 511.999488 826.068278L511.999488 826.068278zM511.999488 30.345378c-195.311107 0-353.669113 158.349471-353.669113 353.654622 0 195.326641 158.356983 353.655645 353.669113 353.655645 195.31213 0 353.669113-158.329005 353.669113-353.655645C865.668601 188.694849 707.312642 30.345378 511.999488 30.345378L511.999488 30.345378zM481.434126 390.000668l159.305626-189.843766c8.094684-9.648754 6.821639-24.197098-2.827511-32.292474l-30.739331-25.794479c-9.669616-8.115841-24.19809-6.842849-32.314264 2.828418l-191.599423 228.330312c-4.058599 4.835122-5.763497 10.900258-5.245683 16.771989-0.517814 5.850242 1.187084 11.915377 5.245683 16.750499l191.599423 228.329289c8.117197 9.670244 22.644647 10.94426 32.314264 2.828418l30.739331-25.794479c9.649149-8.094352 10.922195-22.642696 2.827511-32.292474L481.434126 390.000668 481.434126 390.000668zM481.434126 390.000668"  horiz-adv-x="1024" />

    
    <glyph glyph-name="shouji" unicode="&#59183;" d="M714.23-7.708h-400.517c-23.698 0-42.937 19.183-42.937 42.935v743.788c0 23.698 19.238 42.937 42.937 42.937h400.518c23.698 0 42.937-19.187 42.937-42.937v-743.842c0-23.697-19.239-42.881-42.938-42.881v0zM513.972 35.172c15.813 0 28.623 12.809 28.623 28.626 0 15.813-12.811 28.623-28.623 28.623-15.817 0-28.623-12.809-28.623-28.623 0-15.817 12.805-28.626 28.623-28.626v0zM714.23 736.136h-400.518v-600.779h400.518v600.779zM714.23 736.136z"  horiz-adv-x="1024" />

    
    <glyph glyph-name="jiantouzuo1" unicode="&#58921;" d="M89.293 383.953c0 116.772 47.293 222.408 123.796 298.921 76.518 76.58 182.185 123.863 298.926 123.863 116.736 0 222.403-47.37 298.891-123.863 76.493-76.513 123.802-182.149 123.802-298.921 0-116.68-47.314-222.372-123.802-298.89-76.488-76.431-182.154-123.802-298.89-123.802-116.741 0-222.408 47.37-298.926 123.802-76.503 76.518-123.796 182.212-123.796 298.89v0zM467.872 589.855c7.905 7.844 7.905 20.69 0 28.627-7.962 7.905-20.782 7.905-28.682 0l-220.165-220.17c-3.661-3.63-5.96-8.714-5.96-14.356 0-5.549 2.294-10.665 5.96-14.269v0l0.348-0.379 219.817-219.786c7.905-7.905 20.721-7.905 28.682 0 7.905 7.936 7.905 20.721 0 28.627l-185.585 185.615h508.396c11.186 0 20.254 9.068 20.255 20.199 0 11.249-9.068 20.311-20.254 20.311h-508.396l185.585 185.585zM512.015 1.802c105.523 0 201.073 42.808 270.239 111.944 69.14 69.166 111.928 164.721 111.928 270.212 0 105.58-42.788 201.134-111.928 270.3-69.166 69.13-164.716 111.908-270.239 111.908-105.548 0-201.078-42.778-270.239-111.918-69.166-69.166-111.913-164.716-111.912-270.3 0-105.492 42.747-201.042 111.913-270.213 69.161-69.125 164.684-111.933 270.239-111.933z"  horiz-adv-x="1024" />

    
    <glyph glyph-name="jiantouyou" unicode="&#58922;" d="M934.707 384.047c0-116.772-47.293-222.408-123.796-298.921-76.518-76.58-182.185-123.863-298.926-123.863-116.736 0-222.403 47.37-298.891 123.863-76.493 76.513-123.802 182.149-123.802 298.921 0 116.68 47.314 222.372 123.802 298.89 76.488 76.431 182.154 123.802 298.89 123.802 116.741 0 222.408-47.37 298.926-123.802 76.503-76.518 123.796-182.212 123.796-298.89v0zM556.128 178.145c-7.905-7.844-7.905-20.69 0-28.627 7.962-7.905 20.782-7.905 28.682 0l220.165 220.17c3.661 3.63 5.96 8.714 5.96 14.356 0 5.549-2.294 10.665-5.96 14.269v0l-0.348 0.379-219.817 219.786c-7.905 7.905-20.721 7.905-28.682 0-7.905-7.936-7.905-20.721 0-28.627l185.585-185.615h-508.396c-11.186 0-20.254-9.068-20.255-20.199 0-11.249 9.068-20.311 20.254-20.311h508.396l-185.585-185.585zM511.985 766.198c-105.523 0-201.073-42.808-270.239-111.944-69.14-69.166-111.928-164.721-111.928-270.212 0-105.58 42.788-201.134 111.928-270.3 69.166-69.13 164.716-111.908 270.239-111.908 105.548 0 201.078 42.778 270.239 111.918 69.166 69.166 111.913 164.716 111.912 270.3 0 105.492-42.747 201.042-111.913 270.213-69.161 69.125-164.684 111.933-270.239 111.933z"  horiz-adv-x="1024" />

    
    <glyph glyph-name="iconfontzhizuobiaozhun023146" unicode="&#59028;" d="M551.783587 304.841126 551.783587 646.762519 472.216413 646.762519 472.216413 304.839079 336.806397 440.259328 280.542976 383.99079 511.995395 152.551674 743.454978 383.99079 687.192579 440.259328ZM982.400045 582.719924c-25.713638 60.794621-62.521962 115.3921-109.403712 162.27385-46.880727 46.879704-101.477182 83.691097-162.272827 109.403712-62.950727 26.626427-129.811508 40.126906-198.727087 40.126906-68.915579 0-135.778406-13.500479-198.72811-40.126906-60.794621-25.712615-115.390054-62.524009-162.269757-109.403712-46.879704-46.88175-83.687004-101.479229-109.400642-162.27385-26.624381-62.951751-40.123836-129.813554-40.123836-198.727087 0-68.915579 13.499455-135.77636 40.123836-198.72504 25.713638-60.794621 62.520939-115.390054 109.400642-162.269757 46.879704-46.87868 101.475136-83.687004 162.269757-109.399619 62.949704-26.624381 129.811508-40.122813 198.72811-40.122813s135.777383 13.498432 198.727087 40.122813c60.795645 25.712615 115.3921 62.521962 162.272827 109.399619 46.880727 46.879704 83.689051 101.475136 109.403712 162.269757 26.625404 62.949704 40.124859 129.810484 40.124859 198.72504C1022.525927 452.906369 1009.025449 519.769196 982.400045 582.719924zM679.751097-13.096017c-53.122895-22.468734-109.563348-33.861202-167.754678-33.861202-58.182121 0-114.617457 11.392468-167.738305 33.861202-51.316759 21.703301-97.407494 52.780087-136.993071 92.363617-39.585577 39.58353-70.663386 85.672218-92.368734 136.986931-22.470781 53.119825-33.864272 109.556185-33.864272 167.738305 0 58.18826 11.394515 114.63076 33.864272 167.754678 21.705348 51.316759 52.783157 97.40954 92.368734 136.995117 39.584554 39.58353 85.675288 70.660316 136.992047 92.365664 53.120848 22.468734 109.556185 33.861202 167.738305 33.861202 58.19133 0 114.631784-11.392468 167.754678-33.861202 51.316759-21.705348 97.40647-52.782134 136.988977-92.365664s70.656223-85.676311 92.360548-136.995117c22.466688-53.121871 33.858132-109.563348 33.858132-167.754678 0-58.184167-11.391445-114.620527-33.858132-167.738305-21.704324-51.316759-52.77804-97.40647-92.359524-136.986931C777.157567 39.685094 731.067856 8.607284 679.751097-13.096017z"  horiz-adv-x="1024" />

    
    <glyph glyph-name="xin2" unicode="&#58883;" d="M288.105 773.771C174.047 773.79 64.691 664.313 64.691 507.905c0-176.07 156.747-241.891 261.855-312.283 101.962-68.266 174.057-161.602 185.453-201.393 9.743 38.936 91.03 135.019 185.448 203.373 103.196 74.727 261.861 136.19 261.861 312.262 0 152.117-109.34 260.294-222.908 260.294-86.792 0-167.781-15.754-224.419-128.441-65.593 111.977-138.495 132.042-223.876 132.054"  horiz-adv-x="1024" />

    
    <glyph glyph-name="huiyuan" unicode="&#58960;" d="M797.44 198.016c-172.16 15.36-182.4 93.75744-182.4 93.75744v78.336c100.54144 39.23456 131.26144 189.184 131.26144 189.184 0 59.648-28.928 61.312-28.928 61.312V717.75744c6.72256 161.92-90.368 124.416-92.09344 124.416-1.60256 0-54.46656 42.624-54.46656 42.624-37.56544 28.99456-121.088-10.24-121.088-10.24h1.792c-1.792 0-3.51744 0-5.248-0.06144-94.52544-2.49856-119.22944-71.49056-119.22944-71.49056l1.72544-178.944c-49.34144 0-42.624-69.888-42.624-69.888 0-76.66688 132.93056-182.33344 132.93056-182.33344 8.50944-100.608-44.288-151.61856-44.288-151.61856s-90.30656-3.38944-192.57856-34.10944c-2.432-0.768-4.79744-1.46944-7.168-2.24256-96.44544-33.024-124.032-127.232-124.032-127.232v-92.032l417.47456-1.72544 49.408-90.368 46.01344 92.09856h409.02656v71.61344c1.72544 105.53856-175.488 161.792-175.488 161.792z m-228.352-218.05056H471.936l-40.89856 95.36 32.32256 187.52h100.54144l40.96-192.64-35.77344-90.24z"  horiz-adv-x="1024" />

    
    <glyph glyph-name="fangdajing" unicode="&#58900;" d="M950.221-6.552L679.275 264.394c49.481 60.042 79.2 136.978 79.2 220.856 0 191.919-155.582 347.5-347.5 347.5-191.919 0-347.5-155.581-347.5-347.5 0-191.918 155.581-347.5 347.5-347.5 84.273 0 161.538 30.002 221.702 79.903l270.874-270.874c12.888-12.887 33.782-12.887 46.67 0 12.886 12.888 12.886 33.783 0 46.669zM98.476 485.25c0 172.589 139.911 312.5 312.5 312.5 172.588 0 312.5-139.911 312.5-312.5 0-172.588-139.912-312.5-312.5-312.5-172.59 0-312.5 139.911-312.5 312.5z"  horiz-adv-x="1024" />

    
    <glyph glyph-name="huiyuan1" unicode="&#58934;" d="M194.4 72.8c-9.6 0-17.6 6.4-20 16L72 529.6H60c-26.4 0.8-47.2 22.4-47.2 48.8s21.6 48 48.8 48c26.4 0 48.8-21.6 48.8-48.8 0-6.4-1.6-13.6-4-20l-7.2-13.6 217.6-97.6L496 724l-12 8.8c-12.8 8.8-20.8 24-20.8 40 0 26.4 21.6 48.8 48.8 48.8s48.8-21.6 48.8-48.8c0-16-8-31.2-20.8-40l-12-8 160-278.4 236.8 98.4-6.4 14.4c-2.4 6.4-4 12.8-4 19.2 0 26.4 21.6 48.8 48.8 48.8 26.4 0 48.8-21.6 48.8-48.8 0-26.4-21.6-48.8-48.8-48.8h-13.6L847.2 88c-2.4-9.6-10.4-16-20-16H194.4z m16 40h601.6l88 377.6-212-88c-2.4-0.8-4.8-1.6-8-1.6-7.2 0-13.6 4-17.6 9.6L510.4 672 340.8 410.4c-4-5.6-10.4-9.6-16.8-9.6-3.2 0-5.6 0.8-8 1.6L123.2 488.8l87.2-376zM161.6-40c-13.6 0-24 10.4-24 24s10.4 24 24 24h699.2c13.6 0 24-10.4 24-24s-10.4-24-24-24H161.6z"  horiz-adv-x="1024" />

    
    <glyph glyph-name="icon--" unicode="&#58961;" d="M696.32 855.04H327.68a122.88 122.88 0 0 1-122.88-122.88v-696.32a122.88 122.88 0 0 1 122.88-122.88h368.64a122.88 122.88 0 0 1 122.88 122.88V732.16a122.88 122.88 0 0 1-122.88 122.88z m81.92-819.2a81.92 81.92 0 0 0-81.92-81.92H327.68a81.92 81.92 0 0 0-81.92 81.92V732.16a81.92 81.92 0 0 0 81.92 81.92h368.64a81.92 81.92 0 0 0 81.92-81.92zM225.28 117.76h573.44v-40.96H225.28zM471.04 35.84h81.92v-40.96h-81.92zM225.28 691.2h471.04v-40.96H225.28zM737.28 691.2h61.44v-40.96h-61.44z"  horiz-adv-x="1024" />

    
    <glyph glyph-name="shubiao" unicode="&#58933;" d="M475.29332541 5.218357810000043h-54.66951538c-134.85147124 0-244.71116401 109.85969279-244.71116401 244.71116404V516.76882302c0 134.85147124 109.85969279 244.71116401 244.71116401 244.71116402h54.66951538c134.85147124 0 244.71116401-109.85969279 244.711164-244.71116402v-266.83930117c0-135.11180226-109.85969279-244.71116401-244.711164-244.71116404z m-54.66951538 691.17887286c-98.92578971 0-179.62840764-80.70261791-179.62840764-179.62840765v-266.83930117c0-98.92578971 80.70261791-179.62840764 179.62840764-179.62840765h54.66951538c98.92578971 0 179.62840764 80.70261791 179.62840761 179.62840765V516.76882302c0 98.92578971-80.70261791 179.62840764-179.62840761 179.62840765h-54.66951538zM414.11553437 630.0128191399999h65.08275641v-171.81847685h-65.08275641z"  horiz-adv-x="1024" />

    
    <glyph glyph-name="huiyuan2" unicode="&#58945;" d="M940.8 523.2l-176 219.2c-17.6 22.4-46.4 36.8-75.2 36.8H334.4c-28.8 0-56-12.8-75.2-36.8l-176-219.2c-30.4-36.8-27.2-91.2 4.8-126.4l356.8-377.6 4.8-4.8c17.6-16 41.6-25.6 65.6-25.6h3.2c25.6 1.6 49.6 11.2 67.2 30.4l348.8 376c33.6 36.8 35.2 91.2 6.4 128z m-52.8-83.2L539.2 64c-6.4-6.4-14.4-9.6-22.4-9.6-8 0-16 3.2-22.4 8L136 441.6c-11.2 11.2-11.2 28.8-1.6 41.6l174.4 219.2c6.4 8 16 12.8 25.6 12.8h355.2c9.6 0 19.2-4.8 25.6-12.8l176-219.2c8-12.8 8-30.4-3.2-43.2zM681.6 457.6L515.2 280 344 460.8c-12.8 12.8-32 14.4-46.4 1.6-12.8-11.2-12.8-32-1.6-44.8l172.8-182.4 3.2-3.2c25.6-24 65.6-22.4 91.2 3.2L729.6 416c11.2 12.8 11.2 33.6-1.6 44.8-14.4 11.2-33.6 9.6-46.4-3.2z"  horiz-adv-x="1024" />

    
    <glyph glyph-name="deng" unicode="&#59241;" d="M334.381005 363.603502c-43.065755 49.294608-63.309781 112.604389-57.006228 178.291306 10.574825 110.073758 97.919974 198.776832 207.71744 210.893776 68.155127 7.538682 133.543239-13.271232 184.12721-58.571883 49.904497-44.705089 78.529384-108.733229 78.529384-175.681881 0-58.288428-21.461758-114.226326-60.43532-157.530511-33.148915-36.840996-52.83217-85.053971-56.389176-137.225087H528.321701V457.130431c0 9.007123-7.311508 16.319655-16.323748 16.319655-9.014286 0-16.312492-7.312531-16.312491-16.324771v-233.34507H393.113547c-3.619427 51.119159-24.146908 100.241852-58.732542 139.823257z m267.534684-349.898389H422.088404c-15.65553 0-28.397714 12.72888-28.397714 28.38441v13.222113h236.617596v-13.222113c0.001023-15.648367-12.737067-28.384411-28.392597-28.38441z m28.393621 176.619226v-40.79095h-236.61862V191.086701l236.61862-0.762362z m0-102.380557h-236.61862v28.945182h236.617596v-28.945182h0.001024z m-269.255882-45.853236c0-33.645217 27.378503-61.036 61.035999-61.035999h179.827286c33.65238 0 61.036 27.390782 61.035999 61.035999V206.593852c0 50.646392 17.267234 97.71736 48.62639 132.56803 44.377631 49.313027 68.815158 113.009617 68.815158 179.372938 0 76.212623-32.576888 149.107695-89.390734 199.987401-57.609977 51.586809-132.021585 75.230251-209.499013 66.725571-125.072327-13.823816-224.583539-114.852588-236.613503-240.230883-7.177455-74.713483 15.876564-146.765352 64.907159-202.899725 33.056817-37.817228 51.255258-85.643394 51.255259-134.65557v-165.371068z"  horiz-adv-x="1024" />

    


  </font>
</defs>
</svg>
